<svg width="1151" height="811" xmlns="http://www.w3.org/2000/svg"><title>ROOT canvas</title><path style="pointer-events: visiblefill; fill: rgb(255, 255, 255);" d="M0,0H1151V811H0Z"></path><g><g transform="translate(115,81)" x="115" y="81" width="921" height="649"><title></title><path d="M0,0H921V649H0Z" style="fill: rgb(255, 255, 255); stroke: rgb(0, 0, 0); stroke-width: 1px;" pointer-events="visibleFill"></path><svg x="0" y="0" overflow="hidden" width="921" height="649" viewBox="0 0 921 649" style="pointer-events: visiblefill;"><g><path d="M0,605h8M4,591v29M7,299h8M11,259v80M15,313h8M19,279v69M22,252h8M26,225v54M30,201h8M34,180v42M37,146h8M41,129v35M45,113h8M49,98v29M52,71h8M56,58v25M60,53h8M64,42v22M67,39h8M71,30v19M74,44h8M78,36v16M82,51h8M86,44v15M89,72h8M93,66v13M97,88h8M101,82v12M104,112h8M108,107v10M112,134h8M116,130v9M119,157h8M123,152v9M127,174h8M131,170v8M134,190h8M138,187v7M141,204h8M145,201v6M149,216h8M153,213v6M156,225h8M160,222v5M164,233h8M168,230v6M171,241h8M175,239v5M179,243h8M183,241v4M186,246h8M190,244v4M194,248h8M198,246v4M201,248h8M205,246v4M208,251h8M212,249v4M216,250h8M220,249v3M223,250h8M227,248v3M231,250h8M235,249v3M238,250h8M242,248v3M246,248h8M250,246v3M253,248h8M257,246v3M261,248h8M265,247v3M268,246h8M272,245v3M275,246h8M279,245v3M283,246h8M287,245v2M290,244h8M294,243v2M298,244h8M302,242v3M305,243h8M309,241v3M313,243h8M317,242v2M320,241h8M324,240v3M328,241h8M332,239v3M335,239h8M339,238v2M342,239h8M346,238v2M350,240h8M354,238v3M357,239h8M361,238v2M365,237h8M369,236v2M372,238h8M376,237v2M380,237h8M384,236v2M387,237h8M391,236v2M395,237h8M399,236v2M402,234h8M406,233v2M409,234h8M413,233v2M417,235h8M421,234v2M424,234h8M428,233v2M432,234h8M436,233v2M439,234h8M443,233v1M447,233h8M451,232v2M454,232h8M458,231v2M462,233h8M466,232v1M469,232h8M473,232v1M476,232h8M480,231v1M484,232h8M488,231v1M491,232h8M495,232v1M499,230h8M503,230v1M506,230h8M510,230v1M514,230h8M518,229v2M521,230h8M525,230v1M528,231h8M532,231v1M536,230h8M540,230v1M543,230h8M547,229v1M551,230h8M555,229v1M558,229h8M562,228v2M566,229h8M570,228v1M573,230h8M577,229v1M581,229h8M585,229v1M588,228h8M592,228v1M595,229h8M599,229v1M603,228h8M607,228v1M610,229h8M614,228v1M618,229h8M622,229v1M625,229h8M629,229v1M633,229h8M637,228v1M640,229h8M644,229v1M648,229h8M652,228v1M655,229h8M659,229v1M662,229h8M666,228v1M670,228h8M674,228v1M677,229h8M681,229v1M685,229h8M689,228v1M692,230h8M696,229v1M700,229h8M704,229v0M707,229h8M711,228v1M715,229h8M719,228v1M722,229h8M726,228v1M729,229h8M733,228v1M737,229h8M741,229v1M744,229h8M748,229v1M752,229h8M756,229v1M759,229h8M763,228v1M767,229h8M771,229v1M774,230h8M778,229v1M782,230h8M786,230v1M789,230h8M793,230v0M796,230h8M800,230v0M804,229h8M808,229v1M811,230h8M815,229v1M819,230h8M823,230v1M826,231h8M830,230v1M834,231h8M838,231v0M841,231h8M845,231v0M849,231h8M853,230v1M856,231h8M860,231v0M863,231h8M867,230v1M871,231h8M875,231v1M878,231h8M882,231v1M886,231h8M890,231v0M893,232h8M897,232v0M901,233h8M905,232v1M908,232h8M912,231v1M916,233h8M920,232v1M923,233h8M927,232v1" style="stroke: rgb(0, 74, 108); stroke-width: 1px;"></path><path d="M0,591h8v29h-8zM7,259h8v80h-8zM15,279h8v69h-8zM22,225h8v54h-8zM30,180h8v42h-8zM37,129h8v35h-8zM45,98h8v29h-8zM52,58h8v25h-8zM60,42h8v22h-8zM67,30h8v19h-8zM74,36h8v16h-8zM82,44h8v15h-8zM89,66h8v13h-8zM97,82h8v12h-8zM104,107h8v10h-8zM112,130h8v9h-8zM119,152h8v9h-8zM127,170h8v8h-8zM134,187h8v7h-8zM141,201h8v6h-8zM149,213h8v6h-8zM156,222h8v5h-8zM164,230h8v6h-8zM171,239h8v5h-8zM179,241h8v4h-8zM186,244h8v4h-8zM194,246h8v4h-8zM201,246h8v4h-8zM208,249h8v4h-8zM216,249h8v3h-8zM223,248h8v3h-8zM231,249h8v3h-8zM238,248h8v3h-8zM246,246h8v3h-8zM253,246h8v3h-8zM261,247h8v3h-8zM268,245h8v3h-8zM275,245h8v3h-8zM283,245h8v2h-8zM290,243h8v2h-8zM298,242h8v3h-8zM305,241h8v3h-8zM313,242h8v2h-8zM320,240h8v3h-8zM328,239h8v3h-8zM335,238h8v2h-8zM342,238h8v2h-8zM350,238h8v3h-8zM357,238h8v2h-8zM365,236h8v2h-8zM372,237h8v2h-8zM380,236h8v2h-8zM387,236h8v2h-8zM395,236h8v2h-8zM402,233h8v2h-8zM409,233h8v2h-8zM417,234h8v2h-8zM424,233h8v2h-8zM432,233h8v2h-8zM439,233h8v1h-8zM447,232h8v2h-8zM454,231h8v2h-8zM462,232h8v1h-8zM469,232h8v1h-8zM476,231h8v1h-8zM484,231h8v1h-8zM491,232h8v1h-8zM499,230h8v1h-8zM506,230h8v1h-8zM514,229h8v2h-8zM521,230h8v1h-8zM528,231h8v1h-8zM536,230h8v1h-8zM543,229h8v1h-8zM551,229h8v1h-8zM558,228h8v2h-8zM566,228h8v1h-8zM573,229h8v1h-8zM581,229h8v1h-8zM588,228h8v1h-8zM595,229h8v1h-8zM603,228h8v1h-8zM610,228h8v1h-8zM618,229h8v1h-8zM625,229h8v1h-8zM633,228h8v1h-8zM640,229h8v1h-8zM648,228h8v1h-8zM655,229h8v1h-8zM662,228h8v1h-8zM670,228h8v1h-8zM677,229h8v1h-8zM685,228h8v1h-8zM692,229h8v1h-8zM700,229h8v0h-8zM707,228h8v1h-8zM715,228h8v1h-8zM722,228h8v1h-8zM729,228h8v1h-8zM737,229h8v1h-8zM744,229h8v1h-8zM752,229h8v1h-8zM759,228h8v1h-8zM767,229h8v1h-8zM774,229h8v1h-8zM782,230h8v1h-8zM789,230h8v0h-8zM796,230h8v0h-8zM804,229h8v1h-8zM811,229h8v1h-8zM819,230h8v1h-8zM826,230h8v1h-8zM834,231h8v0h-8zM841,231h8v0h-8zM849,230h8v1h-8zM856,231h8v0h-8zM863,230h8v1h-8zM871,231h8v1h-8zM878,231h8v1h-8zM886,231h8v0h-8zM893,232h8v0h-8zM901,232h8v1h-8zM908,231h8v1h-8zM916,232h8v1h-8zM923,232h8v1h-8z" stroke="none" fill="none" pointer-events="visibleFill"></path><path d="M0,605a4,4,0,1,0,8,0a4,4,0,1,0,-8,0zM7,299a4,4,0,1,0,8,0a4,4,0,1,0,-8,0zM15,313a4,4,0,1,0,8,0a4,4,0,1,0,-8,0zM22,252a4,4,0,1,0,8,0a4,4,0,1,0,-8,0zM30,201a4,4,0,1,0,8,0a4,4,0,1,0,-8,0zM37,146a4,4,0,1,0,8,0a4,4,0,1,0,-8,0zM45,113a4,4,0,1,0,8,0a4,4,0,1,0,-8,0zM52,71a4,4,0,1,0,8,0a4,4,0,1,0,-8,0zM60,53a4,4,0,1,0,8,0a4,4,0,1,0,-8,0zM67,39a4,4,0,1,0,8,0a4,4,0,1,0,-8,0zM74,44a4,4,0,1,0,8,0a4,4,0,1,0,-8,0zM82,51a4,4,0,1,0,8,0a4,4,0,1,0,-8,0zM89,72a4,4,0,1,0,8,0a4,4,0,1,0,-8,0zM97,88a4,4,0,1,0,8,0a4,4,0,1,0,-8,0zM104,112a4,4,0,1,0,8,0a4,4,0,1,0,-8,0zM112,134a4,4,0,1,0,8,0a4,4,0,1,0,-8,0zM119,157a4,4,0,1,0,8,0a4,4,0,1,0,-8,0zM127,174a4,4,0,1,0,8,0a4,4,0,1,0,-8,0zM134,190a4,4,0,1,0,8,0a4,4,0,1,0,-8,0zM141,204a4,4,0,1,0,8,0a4,4,0,1,0,-8,0zM149,216a4,4,0,1,0,8,0a4,4,0,1,0,-8,0zM156,225a4,4,0,1,0,8,0a4,4,0,1,0,-8,0zM164,233a4,4,0,1,0,8,0a4,4,0,1,0,-8,0zM171,241a4,4,0,1,0,8,0a4,4,0,1,0,-8,0zM179,243a4,4,0,1,0,8,0a4,4,0,1,0,-8,0zM186,246a4,4,0,1,0,8,0a4,4,0,1,0,-8,0zM194,248a4,4,0,1,0,8,0a4,4,0,1,0,-8,0zM201,248a4,4,0,1,0,8,0a4,4,0,1,0,-8,0zM208,251a4,4,0,1,0,8,0a4,4,0,1,0,-8,0zM216,250a4,4,0,1,0,8,0a4,4,0,1,0,-8,0zM223,250a4,4,0,1,0,8,0a4,4,0,1,0,-8,0zM231,250a4,4,0,1,0,8,0a4,4,0,1,0,-8,0zM238,250a4,4,0,1,0,8,0a4,4,0,1,0,-8,0zM246,248a4,4,0,1,0,8,0a4,4,0,1,0,-8,0zM253,248a4,4,0,1,0,8,0a4,4,0,1,0,-8,0zM261,248a4,4,0,1,0,8,0a4,4,0,1,0,-8,0zM268,246a4,4,0,1,0,8,0a4,4,0,1,0,-8,0zM275,246a4,4,0,1,0,8,0a4,4,0,1,0,-8,0zM283,246a4,4,0,1,0,8,0a4,4,0,1,0,-8,0zM290,244a4,4,0,1,0,8,0a4,4,0,1,0,-8,0zM298,244a4,4,0,1,0,8,0a4,4,0,1,0,-8,0zM305,243a4,4,0,1,0,8,0a4,4,0,1,0,-8,0zM313,243a4,4,0,1,0,8,0a4,4,0,1,0,-8,0zM320,241a4,4,0,1,0,8,0a4,4,0,1,0,-8,0zM328,241a4,4,0,1,0,8,0a4,4,0,1,0,-8,0zM335,239a4,4,0,1,0,8,0a4,4,0,1,0,-8,0zM342,239a4,4,0,1,0,8,0a4,4,0,1,0,-8,0zM350,240a4,4,0,1,0,8,0a4,4,0,1,0,-8,0zM357,239a4,4,0,1,0,8,0a4,4,0,1,0,-8,0zM365,237a4,4,0,1,0,8,0a4,4,0,1,0,-8,0zM372,238a4,4,0,1,0,8,0a4,4,0,1,0,-8,0zM380,237a4,4,0,1,0,8,0a4,4,0,1,0,-8,0zM387,237a4,4,0,1,0,8,0a4,4,0,1,0,-8,0zM395,237a4,4,0,1,0,8,0a4,4,0,1,0,-8,0zM402,234a4,4,0,1,0,8,0a4,4,0,1,0,-8,0zM409,234a4,4,0,1,0,8,0a4,4,0,1,0,-8,0zM417,235a4,4,0,1,0,8,0a4,4,0,1,0,-8,0zM424,234a4,4,0,1,0,8,0a4,4,0,1,0,-8,0zM432,234a4,4,0,1,0,8,0a4,4,0,1,0,-8,0zM439,234a4,4,0,1,0,8,0a4,4,0,1,0,-8,0zM447,233a4,4,0,1,0,8,0a4,4,0,1,0,-8,0zM454,232a4,4,0,1,0,8,0a4,4,0,1,0,-8,0zM462,233a4,4,0,1,0,8,0a4,4,0,1,0,-8,0zM469,232a4,4,0,1,0,8,0a4,4,0,1,0,-8,0zM476,232a4,4,0,1,0,8,0a4,4,0,1,0,-8,0zM484,232a4,4,0,1,0,8,0a4,4,0,1,0,-8,0zM491,232a4,4,0,1,0,8,0a4,4,0,1,0,-8,0zM499,230a4,4,0,1,0,8,0a4,4,0,1,0,-8,0zM506,230a4,4,0,1,0,8,0a4,4,0,1,0,-8,0zM514,230a4,4,0,1,0,8,0a4,4,0,1,0,-8,0zM521,230a4,4,0,1,0,8,0a4,4,0,1,0,-8,0zM528,231a4,4,0,1,0,8,0a4,4,0,1,0,-8,0zM536,230a4,4,0,1,0,8,0a4,4,0,1,0,-8,0zM543,230a4,4,0,1,0,8,0a4,4,0,1,0,-8,0zM551,230a4,4,0,1,0,8,0a4,4,0,1,0,-8,0zM558,229a4,4,0,1,0,8,0a4,4,0,1,0,-8,0zM566,229a4,4,0,1,0,8,0a4,4,0,1,0,-8,0zM573,230a4,4,0,1,0,8,0a4,4,0,1,0,-8,0zM581,229a4,4,0,1,0,8,0a4,4,0,1,0,-8,0zM588,228a4,4,0,1,0,8,0a4,4,0,1,0,-8,0zM595,229a4,4,0,1,0,8,0a4,4,0,1,0,-8,0zM603,228a4,4,0,1,0,8,0a4,4,0,1,0,-8,0zM610,229a4,4,0,1,0,8,0a4,4,0,1,0,-8,0zM618,229a4,4,0,1,0,8,0a4,4,0,1,0,-8,0zM625,229a4,4,0,1,0,8,0a4,4,0,1,0,-8,0zM633,229a4,4,0,1,0,8,0a4,4,0,1,0,-8,0zM640,229a4,4,0,1,0,8,0a4,4,0,1,0,-8,0zM648,229a4,4,0,1,0,8,0a4,4,0,1,0,-8,0zM655,229a4,4,0,1,0,8,0a4,4,0,1,0,-8,0zM662,229a4,4,0,1,0,8,0a4,4,0,1,0,-8,0zM670,228a4,4,0,1,0,8,0a4,4,0,1,0,-8,0zM677,229a4,4,0,1,0,8,0a4,4,0,1,0,-8,0zM685,229a4,4,0,1,0,8,0a4,4,0,1,0,-8,0zM692,230a4,4,0,1,0,8,0a4,4,0,1,0,-8,0zM700,229a4,4,0,1,0,8,0a4,4,0,1,0,-8,0zM707,229a4,4,0,1,0,8,0a4,4,0,1,0,-8,0zM715,229a4,4,0,1,0,8,0a4,4,0,1,0,-8,0zM722,229a4,4,0,1,0,8,0a4,4,0,1,0,-8,0zM729,229a4,4,0,1,0,8,0a4,4,0,1,0,-8,0zM737,229a4,4,0,1,0,8,0a4,4,0,1,0,-8,0zM744,229a4,4,0,1,0,8,0a4,4,0,1,0,-8,0zM752,229a4,4,0,1,0,8,0a4,4,0,1,0,-8,0zM759,229a4,4,0,1,0,8,0a4,4,0,1,0,-8,0zM767,229a4,4,0,1,0,8,0a4,4,0,1,0,-8,0zM774,230a4,4,0,1,0,8,0a4,4,0,1,0,-8,0zM782,230a4,4,0,1,0,8,0a4,4,0,1,0,-8,0zM789,230a4,4,0,1,0,8,0a4,4,0,1,0,-8,0zM796,230a4,4,0,1,0,8,0a4,4,0,1,0,-8,0zM804,229a4,4,0,1,0,8,0a4,4,0,1,0,-8,0zM811,230a4,4,0,1,0,8,0a4,4,0,1,0,-8,0zM819,230a4,4,0,1,0,8,0a4,4,0,1,0,-8,0zM826,231a4,4,0,1,0,8,0a4,4,0,1,0,-8,0zM834,231a4,4,0,1,0,8,0a4,4,0,1,0,-8,0zM841,231a4,4,0,1,0,8,0a4,4,0,1,0,-8,0zM849,231a4,4,0,1,0,8,0a4,4,0,1,0,-8,0zM856,231a4,4,0,1,0,8,0a4,4,0,1,0,-8,0zM863,231a4,4,0,1,0,8,0a4,4,0,1,0,-8,0zM871,231a4,4,0,1,0,8,0a4,4,0,1,0,-8,0zM878,231a4,4,0,1,0,8,0a4,4,0,1,0,-8,0zM886,231a4,4,0,1,0,8,0a4,4,0,1,0,-8,0zM893,232a4,4,0,1,0,8,0a4,4,0,1,0,-8,0zM901,233a4,4,0,1,0,8,0a4,4,0,1,0,-8,0zM908,232a4,4,0,1,0,8,0a4,4,0,1,0,-8,0zM916,233a4,4,0,1,0,8,0a4,4,0,1,0,-8,0zM923,233a4,4,0,1,0,8,0a4,4,0,1,0,-8,0z" style="stroke: rgb(0, 74, 108); fill: rgb(0, 74, 108);"></path></g><g><path d="M0,1036h8M4,1014v45M7,973h8M11,964v19M15,803h8M19,795v16M22,689h8M26,682v14M30,570h8M34,563v13M37,458h8M41,452v12M45,434h8M49,429v10M52,447h8M56,443v8M60,403h8M64,399v8M67,374h8M71,370v7M74,343h8M78,339v7M82,340h8M86,337v6M89,314h8M93,311v6M97,326h8M101,323v5M104,322h8M108,319v5M112,338h8M116,335v5M119,315h8M123,313v4M127,304h8M131,301v5M134,284h8M138,282v5M141,282h8M145,280v4M149,293h8M153,291v4M156,271h8M160,269v4M164,287h8M168,285v3M171,282h8M175,280v3M179,273h8M183,271v4M186,272h8M190,270v3M194,264h8M198,262v3M201,278h8M205,277v3M208,276h8M212,274v3M216,261h8M220,259v3M223,269h8M227,267v3M231,269h8M235,268v3M238,254h8M242,253v3M246,249h8M250,247v3M253,256h8M257,254v3M261,256h8M265,254v3M268,260h8M272,259v3M275,258h8M279,257v2M283,254h8M287,253v2M290,250h8M294,248v3M298,254h8M302,253v3M305,255h8M309,253v3M313,254h8M317,253v2M320,255h8M324,254v2M328,251h8M332,250v2M335,248h8M339,247v2M342,252h8M346,251v2M350,249h8M354,248v2M357,250h8M361,249v2M365,249h8M369,248v2M372,248h8M376,247v2M380,249h8M384,248v2M387,248h8M391,247v2M395,244h8M399,243v2M402,240h8M406,239v2M409,253h8M413,252v2M417,240h8M421,239v2M424,241h8M428,240v2M432,238h8M436,237v2M439,242h8M443,241v2M447,249h8M451,248v2M454,239h8M458,238v2M462,243h8M466,242v2M469,249h8M473,249v1M476,248h8M480,247v2M484,243h8M488,242v2M491,241h8M495,240v2M499,243h8M503,242v2M506,239h8M510,239v1M514,240h8M518,239v2M521,236h8M525,236v1M528,244h8M532,243v2M536,236h8M540,235v2M543,243h8M547,242v2M551,243h8M555,242v1M558,238h8M562,237v1M566,241h8M570,240v2M573,236h8M577,235v2M581,243h8M585,243v1M588,240h8M592,240v1M595,240h8M599,240v1M603,240h8M607,240v1M610,239h8M614,238v1M618,242h8M622,241v1M625,232h8M629,231v2M633,242h8M637,242v1M640,239h8M644,238v2M648,236h8M652,235v2M655,236h8M659,235v2M662,238h8M666,238v1M670,240h8M674,239v1M677,237h8M681,237v1M685,237h8M689,237v1M692,237h8M696,237v1M700,235h8M704,234v1M707,240h8M711,240v1M715,232h8M719,231v1M722,237h8M726,237v1M729,235h8M733,234v1M737,235h8M741,234v2M744,240h8M748,239v2M752,235h8M756,234v1M759,237h8M763,237v1M767,237h8M771,236v1M774,236h8M778,235v2M782,237h8M786,237v1M789,234h8M793,234v1M796,235h8M800,234v1M804,240h8M808,239v1M811,236h8M815,236v1M819,236h8M823,235v2M826,235h8M830,234v1M834,237h8M838,236v1M841,235h8M845,235v1M849,238h8M853,237v1M856,234h8M860,234v1M863,239h8M867,239v1M871,237h8M875,237v1M878,237h8M882,237v1M886,240h8M890,240v1M893,239h8M897,238v1M901,238h8M905,237v1M908,237h8M912,237v1M916,237h8M920,236v2M923,235h8M927,235v1" style="stroke: rgb(0, 104, 114); stroke-width: 1px;"></path><path d="M0,1014h8v45h-8zM7,964h8v19h-8zM15,795h8v16h-8zM22,682h8v14h-8zM30,563h8v13h-8zM37,452h8v12h-8zM45,429h8v10h-8zM52,443h8v8h-8zM60,399h8v8h-8zM67,370h8v7h-8zM74,339h8v7h-8zM82,337h8v6h-8zM89,311h8v6h-8zM97,323h8v5h-8zM104,319h8v5h-8zM112,335h8v5h-8zM119,313h8v4h-8zM127,301h8v5h-8zM134,282h8v5h-8zM141,280h8v4h-8zM149,291h8v4h-8zM156,269h8v4h-8zM164,285h8v3h-8zM171,280h8v3h-8zM179,271h8v4h-8zM186,270h8v3h-8zM194,262h8v3h-8zM201,277h8v3h-8zM208,274h8v3h-8zM216,259h8v3h-8zM223,267h8v3h-8zM231,268h8v3h-8zM238,253h8v3h-8zM246,247h8v3h-8zM253,254h8v3h-8zM261,254h8v3h-8zM268,259h8v3h-8zM275,257h8v2h-8zM283,253h8v2h-8zM290,248h8v3h-8zM298,253h8v3h-8zM305,253h8v3h-8zM313,253h8v2h-8zM320,254h8v2h-8zM328,250h8v2h-8zM335,247h8v2h-8zM342,251h8v2h-8zM350,248h8v2h-8zM357,249h8v2h-8zM365,248h8v2h-8zM372,247h8v2h-8zM380,248h8v2h-8zM387,247h8v2h-8zM395,243h8v2h-8zM402,239h8v2h-8zM409,252h8v2h-8zM417,239h8v2h-8zM424,240h8v2h-8zM432,237h8v2h-8zM439,241h8v2h-8zM447,248h8v2h-8zM454,238h8v2h-8zM462,242h8v2h-8zM469,249h8v1h-8zM476,247h8v2h-8zM484,242h8v2h-8zM491,240h8v2h-8zM499,242h8v2h-8zM506,239h8v1h-8zM514,239h8v2h-8zM521,236h8v1h-8zM528,243h8v2h-8zM536,235h8v2h-8zM543,242h8v2h-8zM551,242h8v1h-8zM558,237h8v1h-8zM566,240h8v2h-8zM573,235h8v2h-8zM581,243h8v1h-8zM588,240h8v1h-8zM595,240h8v1h-8zM603,240h8v1h-8zM610,238h8v1h-8zM618,241h8v1h-8zM625,231h8v2h-8zM633,242h8v1h-8zM640,238h8v2h-8zM648,235h8v2h-8zM655,235h8v2h-8zM662,238h8v1h-8zM670,239h8v1h-8zM677,237h8v1h-8zM685,237h8v1h-8zM692,237h8v1h-8zM700,234h8v1h-8zM707,240h8v1h-8zM715,231h8v1h-8zM722,237h8v1h-8zM729,234h8v1h-8zM737,234h8v2h-8zM744,239h8v2h-8zM752,234h8v1h-8zM759,237h8v1h-8zM767,236h8v1h-8zM774,235h8v2h-8zM782,237h8v1h-8zM789,234h8v1h-8zM796,234h8v1h-8zM804,239h8v1h-8zM811,236h8v1h-8zM819,235h8v2h-8zM826,234h8v1h-8zM834,236h8v1h-8zM841,235h8v1h-8zM849,237h8v1h-8zM856,234h8v1h-8zM863,239h8v1h-8zM871,237h8v1h-8zM878,237h8v1h-8zM886,240h8v1h-8zM893,238h8v1h-8zM901,237h8v1h-8zM908,237h8v1h-8zM916,236h8v2h-8zM923,235h8v1h-8z" stroke="none" fill="none" pointer-events="visibleFill"></path><path d="M0,1036a4,4,0,1,0,8,0a4,4,0,1,0,-8,0zM7,973a4,4,0,1,0,8,0a4,4,0,1,0,-8,0zM15,803a4,4,0,1,0,8,0a4,4,0,1,0,-8,0zM22,689a4,4,0,1,0,8,0a4,4,0,1,0,-8,0zM30,570a4,4,0,1,0,8,0a4,4,0,1,0,-8,0zM37,458a4,4,0,1,0,8,0a4,4,0,1,0,-8,0zM45,434a4,4,0,1,0,8,0a4,4,0,1,0,-8,0zM52,447a4,4,0,1,0,8,0a4,4,0,1,0,-8,0zM60,403a4,4,0,1,0,8,0a4,4,0,1,0,-8,0zM67,374a4,4,0,1,0,8,0a4,4,0,1,0,-8,0zM74,343a4,4,0,1,0,8,0a4,4,0,1,0,-8,0zM82,340a4,4,0,1,0,8,0a4,4,0,1,0,-8,0zM89,314a4,4,0,1,0,8,0a4,4,0,1,0,-8,0zM97,326a4,4,0,1,0,8,0a4,4,0,1,0,-8,0zM104,322a4,4,0,1,0,8,0a4,4,0,1,0,-8,0zM112,338a4,4,0,1,0,8,0a4,4,0,1,0,-8,0zM119,315a4,4,0,1,0,8,0a4,4,0,1,0,-8,0zM127,304a4,4,0,1,0,8,0a4,4,0,1,0,-8,0zM134,284a4,4,0,1,0,8,0a4,4,0,1,0,-8,0zM141,282a4,4,0,1,0,8,0a4,4,0,1,0,-8,0zM149,293a4,4,0,1,0,8,0a4,4,0,1,0,-8,0zM156,271a4,4,0,1,0,8,0a4,4,0,1,0,-8,0zM164,287a4,4,0,1,0,8,0a4,4,0,1,0,-8,0zM171,282a4,4,0,1,0,8,0a4,4,0,1,0,-8,0zM179,273a4,4,0,1,0,8,0a4,4,0,1,0,-8,0zM186,272a4,4,0,1,0,8,0a4,4,0,1,0,-8,0zM194,264a4,4,0,1,0,8,0a4,4,0,1,0,-8,0zM201,278a4,4,0,1,0,8,0a4,4,0,1,0,-8,0zM208,276a4,4,0,1,0,8,0a4,4,0,1,0,-8,0zM216,261a4,4,0,1,0,8,0a4,4,0,1,0,-8,0zM223,269a4,4,0,1,0,8,0a4,4,0,1,0,-8,0zM231,269a4,4,0,1,0,8,0a4,4,0,1,0,-8,0zM238,254a4,4,0,1,0,8,0a4,4,0,1,0,-8,0zM246,249a4,4,0,1,0,8,0a4,4,0,1,0,-8,0zM253,256a4,4,0,1,0,8,0a4,4,0,1,0,-8,0zM261,256a4,4,0,1,0,8,0a4,4,0,1,0,-8,0zM268,260a4,4,0,1,0,8,0a4,4,0,1,0,-8,0zM275,258a4,4,0,1,0,8,0a4,4,0,1,0,-8,0zM283,254a4,4,0,1,0,8,0a4,4,0,1,0,-8,0zM290,250a4,4,0,1,0,8,0a4,4,0,1,0,-8,0zM298,254a4,4,0,1,0,8,0a4,4,0,1,0,-8,0zM305,255a4,4,0,1,0,8,0a4,4,0,1,0,-8,0zM313,254a4,4,0,1,0,8,0a4,4,0,1,0,-8,0zM320,255a4,4,0,1,0,8,0a4,4,0,1,0,-8,0zM328,251a4,4,0,1,0,8,0a4,4,0,1,0,-8,0zM335,248a4,4,0,1,0,8,0a4,4,0,1,0,-8,0zM342,252a4,4,0,1,0,8,0a4,4,0,1,0,-8,0zM350,249a4,4,0,1,0,8,0a4,4,0,1,0,-8,0zM357,250a4,4,0,1,0,8,0a4,4,0,1,0,-8,0zM365,249a4,4,0,1,0,8,0a4,4,0,1,0,-8,0zM372,248a4,4,0,1,0,8,0a4,4,0,1,0,-8,0zM380,249a4,4,0,1,0,8,0a4,4,0,1,0,-8,0zM387,248a4,4,0,1,0,8,0a4,4,0,1,0,-8,0zM395,244a4,4,0,1,0,8,0a4,4,0,1,0,-8,0zM402,240a4,4,0,1,0,8,0a4,4,0,1,0,-8,0zM409,253a4,4,0,1,0,8,0a4,4,0,1,0,-8,0zM417,240a4,4,0,1,0,8,0a4,4,0,1,0,-8,0zM424,241a4,4,0,1,0,8,0a4,4,0,1,0,-8,0zM432,238a4,4,0,1,0,8,0a4,4,0,1,0,-8,0zM439,242a4,4,0,1,0,8,0a4,4,0,1,0,-8,0zM447,249a4,4,0,1,0,8,0a4,4,0,1,0,-8,0zM454,239a4,4,0,1,0,8,0a4,4,0,1,0,-8,0zM462,243a4,4,0,1,0,8,0a4,4,0,1,0,-8,0zM469,249a4,4,0,1,0,8,0a4,4,0,1,0,-8,0zM476,248a4,4,0,1,0,8,0a4,4,0,1,0,-8,0zM484,243a4,4,0,1,0,8,0a4,4,0,1,0,-8,0zM491,241a4,4,0,1,0,8,0a4,4,0,1,0,-8,0zM499,243a4,4,0,1,0,8,0a4,4,0,1,0,-8,0zM506,239a4,4,0,1,0,8,0a4,4,0,1,0,-8,0zM514,240a4,4,0,1,0,8,0a4,4,0,1,0,-8,0zM521,236a4,4,0,1,0,8,0a4,4,0,1,0,-8,0zM528,244a4,4,0,1,0,8,0a4,4,0,1,0,-8,0zM536,236a4,4,0,1,0,8,0a4,4,0,1,0,-8,0zM543,243a4,4,0,1,0,8,0a4,4,0,1,0,-8,0zM551,243a4,4,0,1,0,8,0a4,4,0,1,0,-8,0zM558,238a4,4,0,1,0,8,0a4,4,0,1,0,-8,0zM566,241a4,4,0,1,0,8,0a4,4,0,1,0,-8,0zM573,236a4,4,0,1,0,8,0a4,4,0,1,0,-8,0zM581,243a4,4,0,1,0,8,0a4,4,0,1,0,-8,0zM588,240a4,4,0,1,0,8,0a4,4,0,1,0,-8,0zM595,240a4,4,0,1,0,8,0a4,4,0,1,0,-8,0zM603,240a4,4,0,1,0,8,0a4,4,0,1,0,-8,0zM610,239a4,4,0,1,0,8,0a4,4,0,1,0,-8,0zM618,242a4,4,0,1,0,8,0a4,4,0,1,0,-8,0zM625,232a4,4,0,1,0,8,0a4,4,0,1,0,-8,0zM633,242a4,4,0,1,0,8,0a4,4,0,1,0,-8,0zM640,239a4,4,0,1,0,8,0a4,4,0,1,0,-8,0zM648,236a4,4,0,1,0,8,0a4,4,0,1,0,-8,0zM655,236a4,4,0,1,0,8,0a4,4,0,1,0,-8,0zM662,238a4,4,0,1,0,8,0a4,4,0,1,0,-8,0zM670,240a4,4,0,1,0,8,0a4,4,0,1,0,-8,0zM677,237a4,4,0,1,0,8,0a4,4,0,1,0,-8,0zM685,237a4,4,0,1,0,8,0a4,4,0,1,0,-8,0zM692,237a4,4,0,1,0,8,0a4,4,0,1,0,-8,0zM700,235a4,4,0,1,0,8,0a4,4,0,1,0,-8,0zM707,240a4,4,0,1,0,8,0a4,4,0,1,0,-8,0zM715,232a4,4,0,1,0,8,0a4,4,0,1,0,-8,0zM722,237a4,4,0,1,0,8,0a4,4,0,1,0,-8,0zM729,235a4,4,0,1,0,8,0a4,4,0,1,0,-8,0zM737,235a4,4,0,1,0,8,0a4,4,0,1,0,-8,0zM744,240a4,4,0,1,0,8,0a4,4,0,1,0,-8,0zM752,235a4,4,0,1,0,8,0a4,4,0,1,0,-8,0zM759,237a4,4,0,1,0,8,0a4,4,0,1,0,-8,0zM767,237a4,4,0,1,0,8,0a4,4,0,1,0,-8,0zM774,236a4,4,0,1,0,8,0a4,4,0,1,0,-8,0zM782,237a4,4,0,1,0,8,0a4,4,0,1,0,-8,0zM789,234a4,4,0,1,0,8,0a4,4,0,1,0,-8,0zM796,235a4,4,0,1,0,8,0a4,4,0,1,0,-8,0zM804,240a4,4,0,1,0,8,0a4,4,0,1,0,-8,0zM811,236a4,4,0,1,0,8,0a4,4,0,1,0,-8,0zM819,236a4,4,0,1,0,8,0a4,4,0,1,0,-8,0zM826,235a4,4,0,1,0,8,0a4,4,0,1,0,-8,0zM834,237a4,4,0,1,0,8,0a4,4,0,1,0,-8,0zM841,235a4,4,0,1,0,8,0a4,4,0,1,0,-8,0zM849,238a4,4,0,1,0,8,0a4,4,0,1,0,-8,0zM856,234a4,4,0,1,0,8,0a4,4,0,1,0,-8,0zM863,239a4,4,0,1,0,8,0a4,4,0,1,0,-8,0zM871,237a4,4,0,1,0,8,0a4,4,0,1,0,-8,0zM878,237a4,4,0,1,0,8,0a4,4,0,1,0,-8,0zM886,240a4,4,0,1,0,8,0a4,4,0,1,0,-8,0zM893,239a4,4,0,1,0,8,0a4,4,0,1,0,-8,0zM901,238a4,4,0,1,0,8,0a4,4,0,1,0,-8,0zM908,237a4,4,0,1,0,8,0a4,4,0,1,0,-8,0zM916,237a4,4,0,1,0,8,0a4,4,0,1,0,-8,0zM923,235a4,4,0,1,0,8,0a4,4,0,1,0,-8,0z" style="stroke: rgb(0, 104, 114); fill: rgb(0, 104, 114);"></path></g><g><path d="M0,1004C0.17,1004,0.67,1004,1,1004S1.67,1004,2,1004S2.83,1004,3,1004S2.83,1004,3,1004S3.67,1004,4,1004S4.67,1004,5,1004S5.83,1004,6,1004S6,1003,6,1003S6.67,1001,7,1001S7.67,998,8,998S9,993,9,993S9,987,9,987S9.67,978,10,978S10.67,967,11,967S12,955,12,955S12,940,12,940S12.67,925,13,925S13.67,909,14,909S15,892,15,892S15,875,15,875S15.67,857,16,857S17,840,17,840S17,822,17,822S17.67,805,18,805S18.67,788,19,788S20,772,20,772S20,756,20,756S20.67,740,21,740S21.67,725,22,725S23,711,23,711S23,697,23,697S23.67,684,24,684S24.67,671,25,671S26,659,26,659S26,647,26,647S26.67,635,27,635S27.67,624,28,624S29,614,29,614S29,604,29,604S29.67,594,30,594S30.67,585,31,585S32,576,32,576S32,568,32,568S32.67,559,33,559S33.67,551,34,551S35,544,35,544S35,537,35,537S35.67,529,36,529S36.67,523,37,523S38,516,38,516S38,510,38,510S38.67,504,39,504S39.67,498,40,498S41,492,41,492S41,487,41,487S41.67,482,42,482S42.67,477,43,477S44,472,44,472S44,467,44,467S44.67,463,45,463S45.67,458,46,458S47,454,47,454S47,450,47,450S47.67,446,48,446S48.67,442,49,442S50,438,50,438S50,434,50,434S50.67,431,51,431S52,428,52,428S52,424,52,424S52.67,421,53,421S53.67,418,54,418S55,415,55,415S55,412,55,412S55.67,409,56,409S56.67,406,57,406S58,403,58,403S58,401,58,401S58.67,398,59,398S59.67,396,60,396S61,393,61,393S61,391,61,391S61.67,388,62,388S62.67,386,63,386S64,384,64,384S64,382,64,382S64.67,380,65,380S65.67,378,66,378S67,376,67,376S67,374,67,374S67.67,372,68,372S68.67,370,69,370S70,368,70,368S70,366,70,366S70.67,365,71,365S71.67,363,72,363S73,361,73,361S73,360,73,360S73.67,358,74,358S74.67,356,75,356S76,355,76,355S76,353,76,353S76.67,352,77,352S77.67,351,78,351S79,349,79,349S79,348,79,348S79.67,346,80,346S80.67,345,81,345S82,344,82,344S82,343,82,343S82.67,341,83,341S84,340,84,340S84,339,84,339S84.67,338,85,338S85.67,337,86,337S87,335,87,335S87,334,87,334S87.67,333,88,333S88.67,332,89,332S90,331,90,331S90,330,90,330S90.67,329,91,329S91.67,328,92,328S93,327,93,327S93,326,93,326S93.67,325,94,325S94.83,324.17,95,324S96,323,96,323S96,323,96,323S96.83,322.17,97,322S97.67,321,98,321S99,320,99,320S99,319,99,319S99.67,318,100,318S100.67,318,101,318S102,317,102,317S102,316,102,316S102.67,315,103,315S103.67,314,104,314S104.83,314,105,314S105,313,105,313S105.67,312,106,312S106.67,312,107,312S108,311,108,311S108,310,108,310S108.67,309,109,309S109.67,309,110,309S111,308,111,308S110.83,307,111,307S111.67,307,112,307S112.67,306,113,306S113.83,306,114,306S114,305,114,305S114.67,304,115,304S115.83,304,116,304S115.83,303,116,303S116.67,303,117,303S117.83,302.17,118,302S119,301,119,301S119,301,119,301S119.67,300,120,300S120.67,300,121,300S122,299,122,299S122,299,122,299S122.67,298,123,298S123.67,298,124,298S125,297,125,297S125,297,125,297S125.67,296,126,296S126.67,296,127,296S128,295,128,295S128,295,128,295S128.67,294,129,294S129.67,294,130,294S131,293,131,293S130.83,293,131,293S131.67,293,132,293S132.67,292,133,292S133.83,292,134,292S133.83,291,134,291S134.67,291,135,291S135.67,290,136,290S136.83,290,137,290S137,290,137,290S137.67,289,138,289S138.67,289,139,289S140,288,140,288S139.83,288,140,288S140.67,288,141,288S141.67,287,142,287S142.83,287,143,287S143,287,143,287S143.67,286,144,286S144.67,286,145,286S146,285,146,285S145.83,285,146,285S146.67,285,147,285S147.67,284,148,284S148.83,284,149,284S149,284,149,284S149.67,283,150,283S150.83,283,151,283S151,283,151,283S151.67,282,152,282S152.67,282,153,282S153.83,282,154,282S153.83,281,154,281S154.67,281,155,281S155.67,281,156,281S156.83,281,157,281S156.83,280,157,280S157.67,280,158,280S158.67,280,159,280S160,279,160,279S159.83,279,160,279S160.67,279,161,279S161.67,279,162,279S163,278,163,278S162.83,278,163,278S163.67,278,164,278S164.67,277,165,277S165.83,277,166,277S165.83,277,166,277S166.67,277,167,277S167.67,276,168,276S168.83,276,169,276S168.83,276,169,276S169.67,276,170,276S170.67,275,171,275S171.83,275,172,275S171.83,275,172,275S172.67,275,173,275S173.67,274,174,274S174.83,274,175,274S174.83,274,175,274S175.67,274,176,274S176.67,273,177,273S177.83,273,178,273S177.83,273,178,273S178.67,273,179,273S179.67,273,180,273S181,272,181,272S180.83,272,181,272S181.67,272,182,272S182.83,272,183,272S182.83,271,183,271S183.67,271,184,271S184.67,271,185,271S185.83,271,186,271S186,271,186,271S186.67,270,187,270S187.67,270,188,270S188.83,270,189,270S188.83,270,189,270S189.67,270,190,270S190.67,269,191,269S191.83,269,192,269S191.83,269,192,269S192.67,269,193,269S193.67,269,194,269S195,268,195,268S194.83,268,195,268S195.67,268,196,268S196.67,268,197,268S197.83,268,198,268S198,268,198,268S198.67,267,199,267S199.67,267,200,267S200.83,267,201,267S200.83,267,201,267S201.67,267,202,267S202.67,267,203,267S204,266,204,266S203.83,266,204,266S204.67,266,205,266S205.67,266,206,266S206.83,266,207,266S207,266,207,266S207.67,265,208,265S208.67,265,209,265S209.83,265,210,265S209.83,265,210,265S210.67,265,211,265S211.67,265,212,265S213,264,213,264S212.83,264,213,264S213.67,264,214,264S214.83,264,215,264S214.83,264,215,264S215.67,264,216,264S216.67,264,217,264S218,263,218,263S217.83,263,218,263S218.67,263,219,263S219.67,263,220,263S220.83,263,221,263S220.83,263,221,263S221.67,263,222,263S222.67,262,223,262S223.83,262,224,262S223.83,262,224,262S224.67,262,225,262S225.67,262,226,262S226.83,262,227,262S227,262,227,262S227.67,261,228,261S228.67,261,229,261S229.83,261,230,261S229.83,261,230,261S230.67,261,231,261S231.67,261,232,261S232.83,261,233,261S233,261,233,261S233.67,260,234,260S234.67,260,235,260S235.83,260,236,260S235.83,260,236,260S236.67,260,237,260S237.67,260,238,260S238.83,260,239,260S238.83,260,239,260S239.67,260,240,260S240.67,259,241,259S241.83,259,242,259S241.83,259,242,259S242.67,259,243,259S243.67,259,244,259S244.83,259,245,259S244.83,259,245,259S245.67,259,246,259S246.67,258,247,258S247.83,258,248,258S247.83,258,248,258S248.67,258,249,258S249.83,258,250,258S249.83,258,250,258S250.67,258,251,258S251.67,258,252,258S252.83,258,253,258S253,258,253,258S253.67,257,254,257S254.67,257,255,257S255.83,257,256,257S255.83,257,256,257S256.67,257,257,257S257.67,257,258,257S258.83,257,259,257S258.83,257,259,257S259.67,257,260,257S260.67,257,261,257S262,256,262,256S261.83,256,262,256S262.67,256,263,256S263.67,256,264,256S264.83,256,265,256S264.83,256,265,256S265.67,256,266,256S266.67,256,267,256S267.83,256,268,256S267.83,256,268,256S268.67,256,269,256S269.67,255,270,255S270.83,255,271,255S270.83,255,271,255S271.67,255,272,255S272.67,255,273,255S273.83,255,274,255S273.83,255,274,255S274.67,255,275,255S275.67,255,276,255S276.83,255,277,255S277,255,277,255S277.67,254,278,254S278.67,254,279,254S279.83,254,280,254S279.83,254,280,254S280.67,254,281,254S281.83,254,282,254S281.83,254,282,254S282.67,254,283,254S283.67,254,284,254S284.83,254,285,254S284.83,254,285,254S285.67,254,286,254S286.67,253,287,253S287.83,253,288,253S287.83,253,288,253S288.67,253,289,253S289.67,253,290,253S290.83,253,291,253S290.83,253,291,253S291.67,253,292,253S292.67,253,293,253S293.83,253,294,253S293.83,253,294,253S294.67,253,295,253S295.67,253,296,253S296.83,253,297,253S296.83,252,297,252S297.67,252,298,252S298.67,252,299,252S299.83,252,300,252S299.83,252,300,252S300.67,252,301,252S301.67,252,302,252S302.83,252,303,252S302.83,252,303,252S303.67,252,304,252S304.67,252,305,252S305.83,252,306,252S305.83,252,306,252S306.67,252,307,252S307.67,251,308,251S308.83,251,309,251S308.83,251,309,251S309.67,251,310,251S310.67,251,311,251S311.83,251,312,251S311.83,251,312,251S312.67,251,313,251S313.83,251,314,251S313.83,251,314,251S314.67,251,315,251S315.67,251,316,251S316.83,251,317,251S316.83,251,317,251S317.67,251,318,251S318.67,251,319,251S320,250,320,250S319.83,250,320,250S320.67,250,321,250S321.67,250,322,250S322.83,250,323,250S322.83,250,323,250S323.67,250,324,250S324.67,250,325,250S325.83,250,326,250S325.83,250,326,250S326.67,250,327,250S327.67,250,328,250S328.83,250,329,250S328.83,250,329,250S329.67,250,330,250S330.67,250,331,250S331.83,250,332,250S331.83,249,332,249S332.67,249,333,249S333.67,249,334,249S334.83,249,335,249S334.83,249,335,249S335.67,249,336,249S336.67,249,337,249S337.83,249,338,249S337.83,249,338,249S338.67,249,339,249S339.67,249,340,249S340.83,249,341,249S340.83,249,341,249S341.67,249,342,249S342.67,249,343,249S343.83,249,344,249S343.83,249,344,249S344.67,249,345,249S345.67,248,346,248S346.83,248,347,248S346.83,248,347,248S347.67,248,348,248S348.83,248,349,248S348.83,248,349,248S349.67,248,350,248S350.67,248,351,248S351.83,248,352,248S351.83,248,352,248S352.67,248,353,248S353.67,248,354,248S354.83,248,355,248S354.83,248,355,248S355.67,248,356,248S356.67,248,357,248S357.83,248,358,248S357.83,248,358,248S358.67,248,359,248S359.67,248,360,248S360.83,248,361,248S360.83,247,361,247S361.67,247,362,247S362.67,247,363,247S363.83,247,364,247S363.83,247,364,247S364.67,247,365,247S365.67,247,366,247S366.83,247,367,247S366.83,247,367,247S367.67,247,368,247S368.67,247,369,247S369.83,247,370,247S369.83,247,370,247S370.67,247,371,247S371.67,247,372,247S372.83,247,373,247S372.83,247,373,247S373.67,247,374,247S374.67,247,375,247S375.83,247,376,247S375.83,247,376,247S376.67,247,377,247S377.67,246,378,246S378.83,246,379,246S378.83,246,379,246S379.67,246,380,246S380.83,246,381,246S380.83,246,381,246S381.67,246,382,246S382.67,246,383,246S383.83,246,384,246S383.83,246,384,246S384.67,246,385,246S385.67,246,386,246S386.83,246,387,246S386.83,246,387,246S387.67,246,388,246S388.67,246,389,246S389.83,246,390,246S389.83,246,390,246S390.67,246,391,246S391.67,246,392,246S392.83,246,393,246S392.83,246,393,246S393.67,246,394,246S394.67,246,395,246S395.83,246,396,246S395.83,245,396,245S396.67,245,397,245S397.67,245,398,245S398.83,245,399,245S398.83,245,399,245S399.67,245,400,245S400.67,245,401,245S401.83,245,402,245S401.83,245,402,245S402.67,245,403,245S403.67,245,404,245S404.83,245,405,245S404.83,245,405,245S405.67,245,406,245S406.67,245,407,245S407.83,245,408,245S407.83,245,408,245S408.67,245,409,245S409.67,245,410,245S410.83,245,411,245S410.83,245,411,245S411.67,245,412,245S412.83,245,413,245S412.83,245,413,245S413.67,245,414,245S414.67,245,415,245S415.83,245,416,245S416,245,416,245S416.67,244,417,244S417.67,244,418,244S418.83,244,419,244S418.83,244,419,244S419.67,244,420,244S420.67,244,421,244S421.83,244,422,244S421.83,244,422,244S422.67,244,423,244S423.67,244,424,244S424.83,244,425,244S424.83,244,425,244S425.67,244,426,244S426.67,244,427,244S427.83,244,428,244S427.83,244,428,244S428.67,244,429,244S429.67,244,430,244S430.83,244,431,244S430.83,244,431,244S431.67,244,432,244S432.67,244,433,244S433.83,244,434,244S433.83,244,434,244S434.67,244,435,244S435.67,244,436,244S436.83,244,437,244S436.83,244,437,244S437.67,244,438,244S438.67,244,439,244S439.83,244,440,244S440,244,440,244S440.67,243,441,243S441.67,243,442,243S442.83,243,443,243S442.83,243,443,243S443.67,243,444,243S444.67,243,445,243S445.83,243,446,243S445.83,243,446,243S446.67,243,447,243S447.83,243,448,243S447.83,243,448,243S448.67,243,449,243S449.67,243,450,243S450.83,243,451,243S450.83,243,451,243S451.67,243,452,243S452.67,243,453,243S453.83,243,454,243S453.83,243,454,243S454.67,243,455,243S455.67,243,456,243S456.83,243,457,243S456.83,243,457,243S457.67,243,458,243S458.67,243,459,243S459.83,243,460,243S459.83,243,460,243S460.67,243,461,243S461.67,243,462,243S462.83,243,463,243S462.83,243,463,243S463.67,243,464,243S464.67,243,465,243S465.83,243,466,243S466,243,466,243S466.67,242,467,242S467.67,242,468,242S468.83,242,469,242S468.83,242,469,242S469.67,242,470,242S470.67,242,471,242S471.83,242,472,242S471.83,242,472,242S472.67,242,473,242S473.67,242,474,242S474.83,242,475,242S474.83,242,475,242S475.67,242,476,242S476.67,242,477,242S477.83,242,478,242S477.83,242,478,242S478.67,242,479,242S479.83,242,480,242S479.83,242,480,242S480.67,242,481,242S481.67,242,482,242S482.83,242,483,242S482.83,242,483,242S483.67,242,484,242S484.67,242,485,242S485.83,242,486,242S485.83,242,486,242S486.67,242,487,242S487.67,242,488,242S488.83,242,489,242S488.83,242,489,242S489.67,242,490,242S490.67,242,491,242S491.83,242,492,242S491.83,242,492,242S492.67,242,493,242S493.67,242,494,242S494.83,242,495,242S494.83,242,495,242S495.67,242,496,242S496.67,242,497,242S498,241,498,241S497.83,241,498,241S498.67,241,499,241S499.67,241,500,241S500.83,241,501,241S500.83,241,501,241S501.67,241,502,241S502.67,241,503,241S503.83,241,504,241S503.83,241,504,241S504.67,241,505,241S505.67,241,506,241S506.83,241,507,241S506.83,241,507,241S507.67,241,508,241S508.67,241,509,241S509.83,241,510,241S509.83,241,510,241S510.67,241,511,241S511.83,241,512,241S511.83,241,512,241S512.67,241,513,241S513.67,241,514,241S514.83,241,515,241S514.83,241,515,241S515.67,241,516,241S516.67,241,517,241S517.83,241,518,241S517.83,241,518,241S518.67,241,519,241S519.67,241,520,241S520.83,241,521,241S520.83,241,521,241S521.67,241,522,241S522.67,241,523,241S523.83,241,524,241S523.83,241,524,241S524.67,241,525,241S525.67,241,526,241S526.83,241,527,241S526.83,241,527,241S527.67,241,528,241S528.67,241,529,241S529.83,241,530,241S529.83,241,530,241S530.67,241,531,241S531.67,241,532,241S533,240,533,240S532.83,240,533,240S533.67,240,534,240S534.67,240,535,240S535.83,240,536,240S535.83,240,536,240S536.67,240,537,240S537.67,240,538,240S538.83,240,539,240S538.83,240,539,240S539.67,240,540,240S540.67,240,541,240S541.83,240,542,240S541.83,240,542,240S542.67,240,543,240S543.67,240,544,240S544.83,240,545,240S544.83,240,545,240S545.67,240,546,240S546.83,240,547,240S546.83,240,547,240S547.67,240,548,240S548.67,240,549,240S549.83,240,550,240S549.83,240,550,240S550.67,240,551,240S551.67,240,552,240S552.83,240,553,240S552.83,240,553,240S553.67,240,554,240S554.67,240,555,240S555.83,240,556,240S555.83,240,556,240S556.67,240,557,240S557.67,240,558,240S558.83,240,559,240S558.83,240,559,240S559.67,240,560,240S560.67,240,561,240S561.83,240,562,240S561.83,240,562,240S562.67,240,563,240S563.67,240,564,240S564.83,240,565,240S564.83,240,565,240S565.67,240,566,240S566.67,240,567,240S567.83,240,568,240S567.83,240,568,240S568.67,240,569,240S569.67,240,570,240S570.83,240,571,240S570.83,240,571,240S571.67,240,572,240S572.67,240,573,240S573.83,240,574,240S573.83,239,574,239S574.67,239,575,239S575.67,239,576,239S576.83,239,577,239S576.83,239,577,239S577.67,239,578,239S578.83,239,579,239S578.83,239,579,239S579.67,239,580,239S580.67,239,581,239S581.83,239,582,239S581.83,239,582,239S582.67,239,583,239S583.67,239,584,239S584.83,239,585,239S584.83,239,585,239S585.67,239,586,239S586.67,239,587,239S587.83,239,588,239S587.83,239,588,239S588.67,239,589,239S589.67,239,590,239S590.83,239,591,239S590.83,239,591,239S591.67,239,592,239S592.67,239,593,239S593.83,239,594,239S593.83,239,594,239S594.67,239,595,239S595.67,239,596,239S596.83,239,597,239S596.83,239,597,239S597.67,239,598,239S598.67,239,599,239S599.83,239,600,239S599.83,239,600,239S600.67,239,601,239S601.67,239,602,239S602.83,239,603,239S602.83,239,603,239S603.67,239,604,239S604.67,239,605,239S605.83,239,606,239S605.83,239,606,239S606.67,239,607,239S607.67,239,608,239S608.83,239,609,239S608.83,239,609,239S609.67,239,610,239S610.83,239,611,239S610.83,239,611,239S611.67,239,612,239S612.67,239,613,239S613.83,239,614,239S613.83,239,614,239S614.67,239,615,239S615.67,239,616,239S616.83,239,617,239S616.83,239,617,239S617.67,239,618,239S618.67,239,619,239S619.83,239,620,239S619.83,239,620,239S620.67,239,621,239S621.67,239,622,239S622.83,239,623,239S622.83,238,623,238S623.67,238,624,238S624.67,238,625,238S625.83,238,626,238S625.83,238,626,238S626.67,238,627,238S627.67,238,628,238S628.83,238,629,238S628.83,238,629,238S629.67,238,630,238S630.67,238,631,238S631.83,238,632,238S631.83,238,632,238S632.67,238,633,238S633.67,238,634,238S634.83,238,635,238S634.83,238,635,238S635.67,238,636,238S636.67,238,637,238S637.83,238,638,238S637.83,238,638,238S638.67,238,639,238S639.67,238,640,238S640.83,238,641,238S640.83,238,641,238S641.67,238,642,238S642.67,238,643,238S643.83,238,644,238S643.83,238,644,238S644.67,238,645,238S645.83,238,646,238S645.83,238,646,238S646.67,238,647,238S647.67,238,648,238S648.83,238,649,238S648.83,238,649,238S649.67,238,650,238S650.67,238,651,238S651.83,238,652,238S651.83,238,652,238S652.67,238,653,238S653.67,238,654,238S654.83,238,655,238S654.83,238,655,238S655.67,238,656,238S656.67,238,657,238S657.83,238,658,238S657.83,238,658,238S658.67,238,659,238S659.67,238,660,238S660.83,238,661,238S660.83,238,661,238S661.67,238,662,238S662.67,238,663,238S663.83,238,664,238S663.83,238,664,238S664.67,238,665,238S665.67,238,666,238S666.83,238,667,238S666.83,238,667,238S667.67,238,668,238S668.67,238,669,238S669.83,238,670,238S669.83,238,670,238S670.67,238,671,238S671.67,238,672,238S672.83,238,673,238S672.83,238,673,238S673.67,238,674,238S674.67,238,675,238S675.83,238,676,238S675.83,238,676,238S676.67,238,677,238S677.83,238,678,238S677.83,238,678,238S678.67,238,679,238S679.67,238,680,238S680.83,238,681,238S680.83,238,681,238S681.67,238,682,238S682.67,237,683,237S683.83,237,684,237S683.83,237,684,237S684.67,237,685,237S685.67,237,686,237S686.83,237,687,237S686.83,237,687,237S687.67,237,688,237S688.67,237,689,237S689.83,237,690,237S689.83,237,690,237S690.67,237,691,237S691.67,237,692,237S692.83,237,693,237S692.83,237,693,237S693.67,237,694,237S694.67,237,695,237S695.83,237,696,237S695.83,237,696,237S696.67,237,697,237S697.67,237,698,237S698.83,237,699,237S698.83,237,699,237S699.67,237,700,237S700.67,237,701,237S701.83,237,702,237S701.83,237,702,237S702.67,237,703,237S703.67,237,704,237S704.83,237,705,237S704.83,237,705,237S705.67,237,706,237S706.67,237,707,237S707.83,237,708,237S707.83,237,708,237S708.67,237,709,237S709.83,237,710,237S709.83,237,710,237S710.67,237,711,237S711.67,237,712,237S712.83,237,713,237S712.83,237,713,237S713.67,237,714,237S714.67,237,715,237S715.83,237,716,237S715.83,237,716,237S716.67,237,717,237S717.67,237,718,237S718.83,237,719,237S718.83,237,719,237S719.67,237,720,237S720.67,237,721,237S721.83,237,722,237S721.83,237,722,237S722.67,237,723,237S723.67,237,724,237S724.83,237,725,237S724.83,237,725,237S725.67,237,726,237S726.67,237,727,237S727.83,237,728,237S727.83,237,728,237S728.67,237,729,237S729.67,237,730,237S730.83,237,731,237S730.83,237,731,237S731.67,237,732,237S732.67,237,733,237S733.83,237,734,237S733.83,237,734,237S734.67,237,735,237S735.67,237,736,237S736.83,237,737,237S736.83,237,737,237S737.67,237,738,237S738.67,237,739,237S739.83,237,740,237S739.83,237,740,237S740.67,237,741,237S741.67,237,742,237S742.83,237,743,237S742.83,237,743,237S743.67,237,744,237S744.83,237,745,237S744.83,237,745,237S745.67,237,746,237S746.67,237,747,237S747.83,237,748,237S747.83,237,748,237S748.67,237,749,237S749.67,237,750,237S750.83,237,751,237S750.83,237,751,237S751.67,237,752,237S752.67,237,753,237S753.83,237,754,237S753.83,237,754,237S754.67,237,755,237S755.67,237,756,237S756.83,237,757,237S756.83,236,757,236S757.67,236,758,236S758.67,236,759,236S759.83,236,760,236S759.83,236,760,236S760.67,236,761,236S761.67,236,762,236S762.83,236,763,236S762.83,236,763,236S763.67,236,764,236S764.67,236,765,236S765.83,236,766,236S765.83,236,766,236S766.67,236,767,236S767.67,236,768,236S768.83,236,769,236S768.83,236,769,236S769.67,236,770,236S770.67,236,771,236S771.83,236,772,236S771.83,236,772,236S772.67,236,773,236S773.67,236,774,236S774.83,236,775,236S774.83,236,775,236S775.67,236,776,236S776.83,236,777,236S776.83,236,777,236S777.67,236,778,236S778.67,236,779,236S779.83,236,780,236S779.83,236,780,236S780.67,236,781,236S781.67,236,782,236S782.83,236,783,236S782.83,236,783,236S783.67,236,784,236S784.67,236,785,236S785.83,236,786,236S785.83,236,786,236S786.67,236,787,236S787.67,236,788,236S788.83,236,789,236S788.83,236,789,236S789.67,236,790,236S790.67,236,791,236S791.83,236,792,236S791.83,236,792,236S792.67,236,793,236S793.67,236,794,236S794.83,236,795,236S794.83,236,795,236S795.67,236,796,236S796.67,236,797,236S797.83,236,798,236S797.83,236,798,236S798.67,236,799,236S799.67,236,800,236S800.83,236,801,236S800.83,236,801,236S801.67,236,802,236S802.67,236,803,236S803.83,236,804,236S803.83,236,804,236S804.67,236,805,236S805.67,236,806,236S806.83,236,807,236S806.83,236,807,236S807.67,236,808,236S808.83,236,809,236S808.83,236,809,236S809.67,236,810,236S810.67,236,811,236S811.83,236,812,236S811.83,236,812,236S812.67,236,813,236S813.67,236,814,236S814.83,236,815,236S814.83,236,815,236S815.67,236,816,236S816.67,236,817,236S817.83,236,818,236S817.83,236,818,236S818.67,236,819,236S819.67,236,820,236S820.83,236,821,236S820.83,236,821,236S821.67,236,822,236S822.67,236,823,236S823.83,236,824,236S823.83,236,824,236S824.67,236,825,236S825.67,236,826,236S826.83,236,827,236S826.83,236,827,236S827.67,236,828,236S828.67,236,829,236S829.83,236,830,236S829.83,236,830,236S830.67,236,831,236S831.67,236,832,236S832.83,236,833,236S832.83,236,833,236S833.67,236,834,236S834.67,236,835,236S835.83,236,836,236S835.83,236,836,236S836.67,236,837,236S837.67,236,838,236S838.83,236,839,236S838.83,236,839,236S839.67,236,840,236S840.67,236,841,236S841.83,236,842,236S841.83,236,842,236S842.67,236,843,236S843.83,236,844,236S843.83,236,844,236S844.67,236,845,236S845.67,236,846,236S846.83,236,847,236S846.83,236,847,236S847.67,236,848,236S848.67,236,849,236S849.83,236,850,236S849.83,236,850,236S850.67,236,851,236S851.67,236,852,236S853,235,853,235S852.83,235,853,235S853.67,235,854,235S854.67,235,855,235S855.83,235,856,235S855.83,235,856,235S856.67,235,857,235S857.67,235,858,235S858.83,235,859,235S858.83,235,859,235S859.67,235,860,235S860.67,235,861,235S861.83,235,862,235S861.83,235,862,235S862.67,235,863,235S863.67,235,864,235S864.83,235,865,235S864.83,235,865,235S865.67,235,866,235S866.67,235,867,235S867.83,235,868,235S867.83,235,868,235S868.67,235,869,235S869.67,235,870,235S870.83,235,871,235S870.83,235,871,235S871.67,235,872,235S872.67,235,873,235S873.83,235,874,235S873.83,235,874,235S874.67,235,875,235S875.83,235,876,235S875.83,235,876,235S876.67,235,877,235S877.67,235,878,235S878.83,235,879,235S878.83,235,879,235S879.67,235,880,235S880.67,235,881,235S881.83,235,882,235S881.83,235,882,235S882.67,235,883,235S883.67,235,884,235S884.83,235,885,235S884.83,235,885,235S885.67,235,886,235S886.67,235,887,235S887.83,235,888,235S887.83,235,888,235S888.67,235,889,235S889.67,235,890,235S890.83,235,891,235S890.83,235,891,235S891.67,235,892,235S892.67,235,893,235S893.83,235,894,235S893.83,235,894,235S894.67,235,895,235S895.67,235,896,235S896.83,235,897,235S896.83,235,897,235S897.67,235,898,235S898.67,235,899,235S899.83,235,900,235S899.83,235,900,235S900.67,235,901,235S901.67,235,902,235S902.83,235,903,235S902.83,235,903,235S903.67,235,904,235S904.67,235,905,235S905.83,235,906,235S905.83,235,906,235S906.67,235,907,235S907.83,235,908,235S907.83,235,908,235S908.67,235,909,235S909.67,235,910,235S910.83,235,911,235S910.83,235,911,235S911.67,235,912,235S912.67,235,913,235S913.83,235,914,235S913.83,235,914,235S914.67,235,915,235S915.67,235,916,235S916.83,235,917,235S916.83,235,917,235S917.67,235,918,235S918.67,235,919,235S919.83,235,920,235S919.83,235,920,235S920.83,235,921,235L921,236C920.83,236,920.17,236,920,236S920.17,236,920,236S919.33,236,919,236S918.33,236,918,236S917.17,236,917,236S917.17,236,917,236S916.33,236,916,236S915.33,236,915,236S914.17,236,914,236S914.17,236,914,236S913.33,236,913,236S912.33,236,912,236S911.17,236,911,236S911.17,236,911,236S910.33,236,910,236S909.33,236,909,236S908.17,236,908,236S908.17,236,908,236S907.33,236,907,236S906.17,236,906,236S906.17,236,906,236S905.33,236,905,236S904.33,236,904,236S903.17,236,903,236S903.17,236,903,236S902.33,236,902,236S901.33,236,901,236S900.17,236,900,236S900.17,236,900,236S899.33,236,899,236S898.33,236,898,236S897.17,236,897,236S897.17,236,897,236S896.33,236,896,236S895.33,236,895,236S894.17,236,894,236S894.17,236,894,236S893.33,236,893,236S892.33,236,892,236S891.17,236,891,236S891.17,236,891,236S890.33,236,890,236S889.33,236,889,236S888.17,236,888,236S888.17,236,888,236S887.33,236,887,236S886.33,236,886,236S885.17,236,885,236S885.17,236,885,236S884.33,236,884,236S883.33,236,883,236S882.17,236,882,236S882.17,236,882,236S881.33,236,881,236S880.33,236,880,236S879.17,236,879,236S879.17,236,879,236S878.33,236,878,236S877.33,236,877,236S876.17,236,876,236S876.17,236,876,236S875.33,236,875,236S874.17,236,874,236S874.17,236,874,236S873.33,236,873,236S872.33,236,872,236S871.17,236,871,236S871.17,236,871,236S870.33,236,870,236S869.33,236,869,236S868.17,236,868,236S868.17,236,868,236S867.33,236,867,236S866.33,236,866,236S865.17,236,865,236S865.17,236,865,236S864.33,236,864,236S863.33,236,863,236S862.17,236,862,236S862.17,236,862,236S861.33,236,861,236S860.33,236,860,236S859.17,236,859,236S859.17,236,859,236S858.33,236,858,236S857.33,236,857,236S856.17,236,856,236S856.17,236,856,236S855.33,236,855,236S854.33,237,854,237S853.17,237,853,237S853.17,237,853,237S852.33,237,852,237S851.33,237,851,237S850.17,237,850,237S850.17,237,850,237S849.33,237,849,237S848.33,237,848,237S847.17,237,847,237S847.17,237,847,237S846.33,237,846,237S845.33,237,845,237S844.17,237,844,237S844.17,237,844,237S843.33,237,843,237S842.17,237,842,237S842.17,237,842,237S841.33,237,841,237S840.33,237,840,237S839.17,237,839,237S839.17,237,839,237S838.33,237,838,237S837.33,237,837,237S836.17,237,836,237S836.17,237,836,237S835.33,237,835,237S834.33,237,834,237S833.17,237,833,237S833.17,237,833,237S832.33,237,832,237S831.33,237,831,237S830.17,237,830,237S830.17,237,830,237S829.33,237,829,237S828.33,237,828,237S827.17,237,827,237S827.17,237,827,237S826.33,237,826,237S825.33,237,825,237S824.17,237,824,237S824.17,237,824,237S823.33,237,823,237S822.33,237,822,237S821.17,237,821,237S821.17,237,821,237S820.33,237,820,237S819.33,237,819,237S818.17,237,818,237S818.17,237,818,237S817.33,237,817,237S816.33,237,816,237S815.17,237,815,237S815.17,237,815,237S814.33,237,814,237S813.33,237,813,237S812.17,237,812,237S812.17,237,812,237S811.33,237,811,237S810.33,237,810,237S809.17,237,809,237S809.17,237,809,237S808.33,237,808,237S807.17,237,807,237S807.17,237,807,237S806.33,237,806,237S805.33,237,805,237S804.17,237,804,237S804.17,237,804,237S803.33,237,803,237S802.33,237,802,237S801.17,237,801,237S801.17,237,801,237S800.33,237,800,237S799.33,237,799,237S798.17,237,798,237S798.17,237,798,237S797.33,237,797,237S796.33,237,796,237S795.17,237,795,237S795.17,237,795,237S794.33,237,794,237S793.33,237,793,237S792.17,237,792,237S792.17,237,792,237S791.33,237,791,237S790.33,237,790,237S789.17,237,789,237S789.17,237,789,237S788.33,237,788,237S787.33,237,787,237S786.17,237,786,237S786.17,237,786,237S785.33,237,785,237S784.33,237,784,237S783.17,237,783,237S783.17,237,783,237S782.33,237,782,237S781.33,237,781,237S780.17,237,780,237S780.17,237,780,237S779.33,237,779,237S778.33,237,778,237S777.17,237,777,237S777.17,237,777,237S776.33,237,776,237S775.17,237,775,237S775.17,237,775,237S774.33,237,774,237S773.33,237,773,237S772.17,237,772,237S772.17,237,772,237S771.33,237,771,237S770.33,237,770,237S769.17,237,769,237S769,237,769,237S768.33,238,768,238S767.33,238,767,238S766.17,238,766,238S766.17,238,766,238S765.33,238,765,238S764.33,238,764,238S763.17,238,763,238S763.17,238,763,238S762.33,238,762,238S761.33,238,761,238S760.17,238,760,238S760.17,238,760,238S759.33,238,759,238S758.33,238,758,238S757.17,238,757,238S757.17,238,757,238S756.33,238,756,238S755.33,238,755,238S754.17,238,754,238S754.17,238,754,238S753.33,238,753,238S752.33,238,752,238S751.17,238,751,238S751.17,238,751,238S750.33,238,750,238S749.33,238,749,238S748.17,238,748,238S748.17,238,748,238S747.33,238,747,238S746.33,238,746,238S745.17,238,745,238S745.17,238,745,238S744.33,238,744,238S743.17,238,743,238S743.17,238,743,238S742.33,238,742,238S741.33,238,741,238S740.17,238,740,238S740.17,238,740,238S739.33,238,739,238S738.33,238,738,238S737.17,238,737,238S737.17,238,737,238S736.33,238,736,238S735.33,238,735,238S734.17,238,734,238S734.17,238,734,238S733.33,238,733,238S732.33,238,732,238S731.17,238,731,238S731.17,238,731,238S730.33,238,730,238S729.33,238,729,238S728.17,238,728,238S728.17,238,728,238S727.33,238,727,238S726.33,238,726,238S725.17,238,725,238S725.17,238,725,238S724.33,238,724,238S723.33,238,723,238S722.17,238,722,238S722.17,238,722,238S721.33,238,721,238S720.33,238,720,238S719.17,238,719,238S719.17,238,719,238S718.33,238,718,238S717.33,238,717,238S716.17,238,716,238S716.17,238,716,238S715.33,238,715,238S714.33,238,714,238S713.17,238,713,238S713.17,238,713,238S712.33,238,712,238S711.33,238,711,238S710.17,238,710,238S710.17,238,710,238S709.33,238,709,238S708.17,238,708,238S708.17,238,708,238S707.33,238,707,238S706.33,238,706,238S705.17,238,705,238S705.17,238,705,238S704.33,238,704,238S703.33,238,703,238S702.17,238,702,238S702.17,238,702,238S701.33,238,701,238S700.33,238,700,238S699,239,699,239S699.17,239,699,239S698.33,239,698,239S697.33,239,697,239S696.17,239,696,239S696.17,239,696,239S695.33,239,695,239S694.33,239,694,239S693.17,239,693,239S693.17,239,693,239S692.33,239,692,239S691.33,239,691,239S690.17,239,690,239S690.17,239,690,239S689.33,239,689,239S688.33,239,688,239S687.17,239,687,239S687.17,239,687,239S686.33,239,686,239S685.33,239,685,239S684.17,239,684,239S684.17,239,684,239S683.33,239,683,239S682.33,239,682,239S681.17,239,681,239S681.17,239,681,239S680.33,239,680,239S679.33,239,679,239S678.17,239,678,239S678.17,239,678,239S677.33,239,677,239S676.17,239,676,239S676.17,239,676,239S675.33,239,675,239S674.33,239,674,239S673.17,239,673,239S673.17,239,673,239S672.33,239,672,239S671.33,239,671,239S670.17,239,670,239S670.17,239,670,239S669.33,239,669,239S668.33,239,668,239S667.17,239,667,239S667.17,239,667,239S666.33,239,666,239S665.33,239,665,239S664.17,239,664,239S664.17,239,664,239S663.33,239,663,239S662.33,239,662,239S661.17,239,661,239S661.17,239,661,239S660.33,239,660,239S659.33,239,659,239S658.17,239,658,239S658.17,239,658,239S657.33,239,657,239S656.33,239,656,239S655.17,239,655,239S655.17,239,655,239S654.33,239,654,239S653.33,239,653,239S652.17,239,652,239S652.17,239,652,239S651.33,239,651,239S650.33,239,650,239S649.17,239,649,239S649.17,239,649,239S648.33,239,648,239S647.33,239,647,239S646.17,239,646,239S646.17,239,646,239S645.33,239,645,239S644.17,239,644,239S644,239,644,239S643.33,240,643,240S642.33,240,642,240S641.17,240,641,240S641.17,240,641,240S640.33,240,640,240S639.33,240,639,240S638.17,240,638,240S638.17,240,638,240S637.33,240,637,240S636.33,240,636,240S635.17,240,635,240S635.17,240,635,240S634.33,240,634,240S633.33,240,633,240S632.17,240,632,240S632.17,240,632,240S631.33,240,631,240S630.33,240,630,240S629.17,240,629,240S629.17,240,629,240S628.33,240,628,240S627.33,240,627,240S626.17,240,626,240S626.17,240,626,240S625.33,240,625,240S624.33,240,624,240S623.17,240,623,240S623.17,240,623,240S622.33,240,622,240S621.33,240,621,240S620.17,240,620,240S620.17,240,620,240S619.33,240,619,240S618.33,240,618,240S617.17,240,617,240S617.17,240,617,240S616.33,240,616,240S615.33,240,615,240S614.17,240,614,240S614.17,240,614,240S613.33,240,613,240S612.33,240,612,240S611.17,240,611,240S611.17,240,611,240S610.33,240,610,240S609.17,240,609,240S609.17,240,609,240S608.33,240,608,240S607.33,240,607,240S606.17,240,606,240S606.17,240,606,240S605.33,240,605,240S604.33,240,604,240S603.17,240,603,240S603.17,240,603,240S602.33,240,602,240S601.33,240,601,240S600.17,240,600,240S600.17,240,600,240S599.33,240,599,240S598.33,240,598,240S597.17,240,597,240S597.17,240,597,240S596.33,240,596,240S595.33,241,595,241S594.17,241,594,241S594.17,241,594,241S593.33,241,593,241S592.33,241,592,241S591.17,241,591,241S591.17,241,591,241S590.33,241,590,241S589.33,241,589,241S588.17,241,588,241S588.17,241,588,241S587.33,241,587,241S586.33,241,586,241S585.17,241,585,241S585.17,241,585,241S584.33,241,584,241S583.33,241,583,241S582.17,241,582,241S582.17,241,582,241S581.33,241,581,241S580.33,241,580,241S579.17,241,579,241S579.17,241,579,241S578.33,241,578,241S577.17,241,577,241S577.17,241,577,241S576.33,241,576,241S575.33,241,575,241S574.17,241,574,241S574.17,241,574,241S573.33,241,573,241S572.33,241,572,241S571.17,241,571,241S571.17,241,571,241S570.33,241,570,241S569.33,241,569,241S568.17,241,568,241S568.17,241,568,241S567.33,241,567,241S566.33,241,566,241S565.17,241,565,241S565.17,241,565,241S564.33,241,564,241S563.33,241,563,241S562.17,241,562,241S562.17,241,562,241S561.33,241,561,241S560.33,241,560,241S559.17,241,559,241S559.17,241,559,241S558.33,241,558,241S557.33,241,557,241S556.17,241,556,241S556,241,556,241S555.33,242,555,242S554.33,242,554,242S553.17,242,553,242S553.17,242,553,242S552.33,242,552,242S551.33,242,551,242S550.17,242,550,242S550.17,242,550,242S549.33,242,549,242S548.33,242,548,242S547.17,242,547,242S547.17,242,547,242S546.33,242,546,242S545.17,242,545,242S545.17,242,545,242S544.33,242,544,242S543.33,242,543,242S542.17,242,542,242S542.17,242,542,242S541.33,242,541,242S540.33,242,540,242S539.17,242,539,242S539.17,242,539,242S538.33,242,538,242S537.33,242,537,242S536.17,242,536,242S536.17,242,536,242S535.33,242,535,242S534.33,242,534,242S533.17,242,533,242S533.17,242,533,242S532.33,242,532,242S531.33,242,531,242S530.17,242,530,242S530.17,242,530,242S529.33,242,529,242S528.33,242,528,242S527.17,242,527,242S527.17,242,527,242S526.33,242,526,242S525.33,242,525,242S524.17,242,524,242S524.17,242,524,242S523.33,242,523,242S522.33,242,522,242S521.17,242,521,242S521.17,243,521,243S520.33,243,520,243S519.33,243,519,243S518.17,243,518,243S518.17,243,518,243S517.33,243,517,243S516.33,243,516,243S515.17,243,515,243S515.17,243,515,243S514.33,243,514,243S513.33,243,513,243S512.17,243,512,243S512.17,243,512,243S511.33,243,511,243S510.17,243,510,243S510.17,243,510,243S509.33,243,509,243S508.33,243,508,243S507.17,243,507,243S507.17,243,507,243S506.33,243,506,243S505.33,243,505,243S504.17,243,504,243S504.17,243,504,243S503.33,243,503,243S502.33,243,502,243S501.17,243,501,243S501.17,243,501,243S500.33,243,500,243S499.33,243,499,243S498.17,243,498,243S498.17,243,498,243S497.33,243,497,243S496.33,243,496,243S495.17,243,495,243S495.17,243,495,243S494.33,243,494,243S493.33,243,493,243S492.17,243,492,243S492.17,243,492,243S491.33,243,491,243S490.33,244,490,244S489.17,244,489,244S489.17,244,489,244S488.33,244,488,244S487.33,244,487,244S486.17,244,486,244S486.17,244,486,244S485.33,244,485,244S484.33,244,484,244S483.17,244,483,244S483.17,244,483,244S482.33,244,482,244S481.33,244,481,244S480.17,244,480,244S480.17,244,480,244S479.33,244,479,244S478.17,244,478,244S478.17,244,478,244S477.33,244,477,244S476.33,244,476,244S475.17,244,475,244S475.17,244,475,244S474.33,244,474,244S473.33,244,473,244S472.17,244,472,244S472.17,244,472,244S471.33,244,471,244S470.33,244,470,244S469.17,244,469,244S469.17,244,469,244S468.33,244,468,244S467.33,244,467,244S466.17,244,466,244S466.17,244,466,244S465.33,244,465,244S464.33,245,464,245S463.17,245,463,245S463.17,245,463,245S462.33,245,462,245S461.33,245,461,245S460.17,245,460,245S460.17,245,460,245S459.33,245,459,245S458.33,245,458,245S457.17,245,457,245S457.17,245,457,245S456.33,245,456,245S455.33,245,455,245S454.17,245,454,245S454.17,245,454,245S453.33,245,453,245S452.33,245,452,245S451.17,245,451,245S451.17,245,451,245S450.33,245,450,245S449.33,245,449,245S448.17,245,448,245S448.17,245,448,245S447.33,245,447,245S446.17,245,446,245S446.17,245,446,245S445.33,245,445,245S444.33,245,444,245S443.17,245,443,245S443.17,245,443,245S442.33,245,442,245S441.33,245,441,245S440,246,440,246S440.17,246,440,246S439.33,246,439,246S438.33,246,438,246S437.17,246,437,246S437.17,246,437,246S436.33,246,436,246S435.33,246,435,246S434.17,246,434,246S434.17,246,434,246S433.33,246,433,246S432.33,246,432,246S431.17,246,431,246S431.17,246,431,246S430.33,246,430,246S429.33,246,429,246S428.17,246,428,246S428.17,246,428,246S427.33,246,427,246S426.33,246,426,246S425.17,246,425,246S425.17,246,425,246S424.33,246,424,246S423.33,246,423,246S422.17,246,422,246S422.17,246,422,246S421.33,246,421,246S420.33,246,420,246S419,247,419,247S419.17,247,419,247S418.33,247,418,247S417.33,247,417,247S416.17,247,416,247S416.17,247,416,247S415.33,247,415,247S414.33,247,414,247S413.17,247,413,247S413.17,247,413,247S412.33,247,412,247S411.17,247,411,247S411.17,247,411,247S410.33,247,410,247S409.33,247,409,247S408.17,247,408,247S408.17,247,408,247S407.33,247,407,247S406.33,247,406,247S405.17,247,405,247S405.17,247,405,247S404.33,247,404,247S403.33,247,403,247S402.17,247,402,247S402,247,402,247S401.33,248,401,248S400.33,248,400,248S399.17,248,399,248S399.17,248,399,248S398.33,248,398,248S397.33,248,397,248S396.17,248,396,248S396.17,248,396,248S395.33,248,395,248S394.33,248,394,248S393.17,248,393,248S393.17,248,393,248S392.33,248,392,248S391.33,248,391,248S390.17,248,390,248S390.17,248,390,248S389.33,248,389,248S388.33,248,388,248S387.17,248,387,248S387.17,248,387,248S386.33,248,386,248S385.33,248,385,248S384.17,248,384,248S384.17,249,384,249S383.33,249,383,249S382.33,249,382,249S381.17,249,381,249S381.17,249,381,249S380.33,249,380,249S379.17,249,379,249S379.17,249,379,249S378.33,249,378,249S377.33,249,377,249S376.17,249,376,249S376.17,249,376,249S375.33,249,375,249S374.33,249,374,249S373.17,249,373,249S373.17,249,373,249S372.33,249,372,249S371.33,249,371,249S370.17,249,370,249S370.17,249,370,249S369.33,249,369,249S368.33,250,368,250S367.17,250,367,250S367.17,250,367,250S366.33,250,366,250S365.33,250,365,250S364.17,250,364,250S364.17,250,364,250S363.33,250,363,250S362.33,250,362,250S361.17,250,361,250S361.17,250,361,250S360.33,250,360,250S359.33,250,359,250S358.17,250,358,250S358.17,250,358,250S357.33,250,357,250S356.33,250,356,250S355.17,250,355,250S355,250,355,250S354.33,251,354,251S353.33,251,353,251S352.17,251,352,251S352.17,251,352,251S351.33,251,351,251S350.33,251,350,251S349.17,251,349,251S349.17,251,349,251S348.33,251,348,251S347.17,251,347,251S347.17,251,347,251S346.33,251,346,251S345.33,251,345,251S344.17,251,344,251S344.17,251,344,251S343.33,251,343,251S342.33,251,342,251S341.17,251,341,251S341.17,252,341,252S340.33,252,340,252S339.33,252,339,252S338.17,252,338,252S338.17,252,338,252S337.33,252,337,252S336.33,252,336,252S335.17,252,335,252S335.17,252,335,252S334.33,252,334,252S333.33,252,333,252S332.17,252,332,252S332.17,252,332,252S331.33,252,331,252S330.33,252,330,252S329.17,252,329,252S329.17,253,329,253S328.33,253,328,253S327.33,253,327,253S326.17,253,326,253S326.17,253,326,253S325.33,253,325,253S324.33,253,324,253S323.17,253,323,253S323.17,253,323,253S322.33,253,322,253S321.33,253,321,253S320.17,253,320,253S320.17,253,320,253S319.33,253,319,253S318.33,253,318,253S317,254,317,254S317.17,254,317,254S316.33,254,316,254S315.33,254,315,254S314.17,254,314,254S314.17,254,314,254S313.33,254,313,254S312.17,254,312,254S312.17,254,312,254S311.33,254,311,254S310.33,254,310,254S309.17,254,309,254S309.17,254,309,254S308.33,254,308,254S307.33,255,307,255S306.17,255,306,255S306.17,255,306,255S305.33,255,305,255S304.33,255,304,255S303.17,255,303,255S303.17,255,303,255S302.33,255,302,255S301.33,255,301,255S300.17,255,300,255S300.17,255,300,255S299.33,255,299,255S298.33,255,298,255S297,256,297,256S297.17,256,297,256S296.33,256,296,256S295.33,256,295,256S294.17,256,294,256S294.17,256,294,256S293.33,256,293,256S292.33,256,292,256S291.17,256,291,256S291.17,256,291,256S290.33,256,290,256S289.33,256,289,256S288,257,288,257S288.17,257,288,257S287.33,257,287,257S286.33,257,286,257S285.17,257,285,257S285.17,257,285,257S284.33,257,284,257S283.33,257,283,257S282.17,257,282,257S282.17,257,282,257S281.33,257,281,257S280,258,280,258S280.17,258,280,258S279.33,258,279,258S278.33,258,278,258S277.17,258,277,258S277.17,258,277,258S276.33,258,276,258S275.33,258,275,258S274.17,258,274,258S274.17,258,274,258S273.33,258,273,258S272.33,259,272,259S271.17,259,271,259S271.17,259,271,259S270.33,259,270,259S269.33,259,269,259S268.17,259,268,259S268.17,259,268,259S267.33,259,267,259S266.33,259,266,259S265,260,265,260S265.17,260,265,260S264.33,260,264,260S263.33,260,263,260S262.17,260,262,260S262.17,260,262,260S261.33,260,261,260S260.33,260,260,260S259.17,260,259,260S259,260,259,260S258.33,261,258,261S257.33,261,257,261S256.17,261,256,261S256.17,261,256,261S255.33,261,255,261S254.33,261,254,261S253.17,261,253,261S253.17,261,253,261S252.33,261,252,261S251.33,262,251,262S250.17,262,250,262S250.17,262,250,262S249.33,262,249,262S248.17,262,248,262S248.17,262,248,262S247.33,262,247,262S246.33,262,246,262S245,263,245,263S245.17,263,245,263S244.33,263,244,263S243.33,263,243,263S242.17,263,242,263S242.17,263,242,263S241.33,263,241,263S240.33,263,240,263S239,264,239,264S239.17,264,239,264S238.33,264,238,264S237.33,264,237,264S236.17,264,236,264S236.17,264,236,264S235.33,264,235,264S234.33,265,234,265S233.17,265,233,265S233.17,265,233,265S232.33,265,232,265S231.33,265,231,265S230.17,265,230,265S230,265,230,265S229.33,266,229,266S228.33,266,228,266S227.17,266,227,266S227.17,266,227,266S226.33,266,226,266S225.33,266,225,266S224.17,266,224,266S224.17,267,224,267S223.33,267,223,267S222.33,267,222,267S221.17,267,221,267S221.17,267,221,267S220.33,267,220,267S219.33,267,219,267S218,268,218,268S218.17,268,218,268S217.33,268,217,268S216.33,268,216,268S215.17,268,215,268S215,268,215,268S214.33,269,214,269S213.17,269,213,269S213.17,269,213,269S212.33,269,212,269S211.33,269,211,269S210.17,269,210,269S210.17,270,210,270S209.33,270,209,270S208.33,270,208,270S207.17,270,207,270S207,270,207,270S206.33,271,206,271S205.33,271,205,271S204.17,271,204,271S204.17,271,204,271S203.33,271,203,271S202.33,271,202,271S201,272,201,272S201.17,272,201,272S200.33,272,200,272S199.33,272,199,272S198.17,272,198,272S198.17,273,198,273S197.33,273,197,273S196.33,273,196,273S195.17,273,195,273S195,273,195,273S194.33,274,194,274S193.33,274,193,274S192.17,274,192,274S192,274,192,274S191.33,275,191,275S190.33,275,190,275S189.17,275,189,275S189.17,275,189,275S188.33,275,188,275S187.33,276,187,276S186.17,276,186,276S186.17,276,186,276S185.33,276,185,276S184.33,277,184,277S183.17,277,183,277S183.17,277,183,277S182.33,277,182,277S181,278,181,278S181.17,278,181,278S180.33,278,180,278S179.33,278,179,278S178,279,178,279S178.17,279,178,279S177.33,279,177,279S176.33,279,176,279S175,280,175,280S175.17,280,175,280S174.33,280,174,280S173.33,280,173,280S172,281,172,281S172.17,281,172,281S171.33,281,171,281S170.33,281,170,281S169,282,169,282S169.17,282,169,282S168.33,282,168,282S167.33,283,167,283S166.17,283,166,283S166.17,283,166,283S165.33,283,165,283S164.33,284,164,284S163.17,284,163,284S163,284,163,284S162.33,285,162,285S161.33,285,161,285S160.17,285,160,285S160.17,286,160,286S159.33,286,159,286S158.33,286,158,286S157,287,157,287S157.17,287,157,287S156.33,287,156,287S155.33,288,155,288S154.17,288,154,288S154,288,154,288S153.33,289,153,289S152.33,289,152,289S151.17,289,151,289S151.17,290,151,290S150.33,290,150,290S149.17,290,149,290S149.17,291,149,291S148.33,291,148,291S147.33,292,147,292S146.17,292,146,292S146,292,146,292S145.33,293,145,293S144.33,293,144,293S143,294,143,294S143.17,294,143,294S142.33,294,142,294S141.33,295,141,295S140.17,295,140,295S140.17,296,140,296S139.33,296,139,296S138.33,297,138,297S137.17,297,137,297S137,297,137,297S136.33,298,136,298S135.33,298,135,298S134,299,134,299S134,299,134,299S133.33,300,133,300S132.33,300,132,300S131,301,131,301S131,301,131,301S130.33,302,130,302S129.33,302,129,302S128,303,128,303S128,303,128,303S127.33,304,127,304S126.33,304,126,304S125,305,125,305S125.17,306,125,306S124.33,306,124,306S123.33,307,123,307S122.17,307,122,307S122.17,308,122,308S121.33,308,121,308S120.17,308.83,120,309S119,310,119,310S119,310,119,310S118.33,311,118,311S117.33,311,117,311S116,312,116,312S116.17,313,116,313S115.33,313,115,313S114,314,114,314S114.17,315,114,315S113.33,315,113,315S112.33,316,112,316S111,317,111,317S111.17,318,111,318S110.33,318,110,318S109.33,319,109,319S108,320,108,320S108.17,321,108,321S107.33,321,107,321S106.33,322,106,322S105,323,105,323S105,324,105,324S104.33,325,104,325S103.33,325,103,325S102,326,102,326S102,327,102,327S101.33,328,101,328S100.33,329,100,329S99,330,99,330S99,331,99,331S98.33,332,98,332S97.33,333,97,333S96,334,96,334S96,335,96,335S95.33,336,95,336S94.33,337,94,337S93,338,93,338S93,339,93,339S92.33,340,92,340S91.33,341,91,341S90,342,90,342S90,343,90,343S89.33,344,89,344S88.33,345,88,345S87,347,87,347S87,348,87,348S86.33,349,86,349S85.33,350,85,350S84,352,84,352S84,353,84,353S83.33,354,83,354S82,356,82,356S82,357,82,357S81.33,358,81,358S80.33,360,80,360S79,361,79,361S79,363,79,363S78.33,364,78,364S77.33,366,77,366S76,368,76,368S76,369,76,369S75.33,371,75,371S74.33,373,74,373S73,374,73,374S73,376,73,376S72.33,378,72,378S71.33,380,71,380S70,382,70,382S70,384,70,384S69.33,386,69,386S68.33,388,68,388S67,390,67,390S67,392,67,392S66.33,394,66,394S65.33,396,65,396S64,399,64,399S64,401,64,401S63.33,404,63,404S62.33,406,62,406S61,409,61,409S61,411,61,411S60.33,414,60,414S59.33,417,59,417S58,419,58,419S58,422,58,422S57.33,425,57,425S56.33,428,56,428S55,432,55,432S55,435,55,435S54.33,438,54,438S53.33,442,53,442S52,445,52,445S52,449,52,449S51.33,452,51,452S50,456,50,456S50,460,50,460S49.33,464,49,464S48.33,468,48,468S47,473,47,473S47,477,47,477S46.33,482,46,482S45.33,487,45,487S44,492,44,492S44,497,44,497S43.33,502,43,502S42.33,507,42,507S41,513,41,513S41,519,41,519S40.33,525,40,525S39.33,531,39,531S38,538,38,538S38,544,38,544S37.33,551,37,551S36.33,559,36,559S35,566,35,566S35,574,35,574S34.33,582,34,582S33.33,590,33,590S32,599,32,599S32,608,32,608S31.33,617,31,617S30.33,627,30,627S29,637,29,637S29,648,29,648S28.33,659,28,659S27.33,670,27,670S26,682,26,682S26,694,26,694S25.33,707,25,707S24.33,720,24,720S23,733,23,733S23,747,23,747S22.33,762,22,762S21.33,777,21,777S20,792,20,792S20,808,20,808S19.33,824,19,824S18.33,841,18,841S17,857,17,857S17,874,17,874S16.33,891,16,891S15,907,15,907S15,923,15,923S14.33,939,14,939S13.33,954,13,954S12,968,12,968S12,981,12,981S11.33,993,11,993S10.33,1002,10,1002S9,1011,9,1011S9,1017,9,1017S8.33,1022,8,1022S7.33,1025,7,1025S6,1026,6,1026S6.17,1027,6,1027S5.33,1027,5,1027S4.33,1028,4,1028S3.17,1028,3,1028S3.17,1028,3,1028S2.33,1028,2,1028S1.33,1028,1,1028S0.17,1028,0,1028Z" style="stroke: none; fill: rgb(230, 51, 18);"></path></g><g><path d="M0,1015.69C0.84,1014.92,9.2,999.17,9.3,998.61S18.6,814.66,18.61,814.5S27.9,641.74,27.91,641.54S37.18,533.97,37.22,533.65S46.44,466.11,46.52,465.61S55.66,420.86,55.83,420.15S64.82,389.04,65.13,388.11S73.92,365.67,74.44,364.52S82.96,347.87,83.74,346.52S91.96,333.89,93.05,332.41S100.96,322.63,102.35,321.09S109.96,313.36,111.65,311.82S119,305.6,120.96,304.11S128.08,299.02,130.26,297.61S137.2,293.37,139.57,292.06S146.35,288.48,148.87,287.27S155.54,284.21,158.18,283.1S164.75,280.46,167.48,279.45S173.99,277.14,176.79,276.22S183.23,274.18,186.09,273.35S192.49,271.54,195.4,270.78S201.76,269.16,204.7,268.47S211.04,267.01,214.01,266.38S220.32,265.07,223.31,264.48S229.61,263.29,232.61,262.76S238.9,261.67,241.92,261.18S248.19,260.18,251.22,259.73S257.48,258.81,260.53,258.39S266.78,257.55,269.83,257.16S276.08,256.38,279.14,256.02S285.38,255.29,288.44,254.96S294.68,254.28,297.75,253.97S303.98,253.34,307.05,253.05S313.28,252.47,316.36,252.19S322.58,251.64,325.66,251.39S331.88,250.87,334.96,250.63S341.18,250.15,344.27,249.92S350.49,249.47,353.57,249.25S359.79,248.83,362.88,248.62S369.09,248.22,372.18,248.03S378.4,247.65,381.49,247.46S387.7,247.1,390.79,246.93S397,246.59,400.1,246.43S406.31,246.1,409.4,245.95S415.61,245.64,418.71,245.49S424.92,245.2,428.01,245.06S434.22,244.78,437.31,244.64S443.52,244.38,446.62,244.25S452.83,243.99,455.92,243.87S462.13,243.63,465.23,243.51S471.44,243.28,474.53,243.17S480.74,242.95,483.84,242.84S490.04,242.63,493.14,242.52S499.35,242.32,502.45,242.22S508.65,242.03,511.75,241.93S517.96,241.74,521.06,241.65S527.26,241.47,530.36,241.38S536.57,241.21,539.67,241.13S545.87,240.96,548.97,240.88S555.17,240.72,558.27,240.64S564.48,240.49,567.58,240.41S573.78,240.26,576.88,240.19S583.09,240.05,586.19,239.98S592.39,239.84,595.49,239.77S601.7,239.64,604.8,239.57S611,239.44,614.1,239.38S620.31,239.25,623.41,239.19S629.61,239.07,632.71,239.01S638.92,238.89,642.02,238.84S648.22,238.72,651.32,238.67S657.52,238.56,660.62,238.51S666.83,238.4,669.93,238.35S676.13,238.24,679.23,238.19S685.44,238.09,688.54,238.05S694.74,237.95,697.84,237.9S704.05,237.81,707.15,237.76S713.35,237.67,716.45,237.62S722.66,237.54,725.76,237.49S731.96,237.41,735.06,237.36S741.26,237.28,744.37,237.24S750.57,237.16,753.67,237.12S759.87,237.04,762.98,237S769.18,236.92,772.28,236.88S778.48,236.81,781.58,236.77S787.79,236.7,790.89,236.66S797.09,236.59,800.19,236.56S806.4,236.49,809.5,236.45S815.7,236.39,818.8,236.35S825.01,236.29,828.11,236.26S834.31,236.19,837.41,236.16S843.61,236.1,846.72,236.07S852.92,236,856.02,235.97S862.22,235.91,865.33,235.89S871.53,235.83,874.63,235.8S880.83,235.74,883.93,235.71S890.14,235.66,893.24,235.63S899.44,235.58,902.54,235.55S908.75,235.5,911.85,235.47S918.05,235.42,921.15,235.39S928.91,235.33,930.46,235.32" style="fill: none; stroke: rgb(230, 51, 18); stroke-width: 2px;"></path></g></svg><g><g transform="translate(0,649)"><path d="M0,0h921" style="stroke: rgb(0, 0, 0); stroke-width: 1px;"></path><path d="M0,-24v24m19,-12v12m18,-12v12m19,-12v12m18,-12v12m19,-24v24m19,-12v12m18,-12v12m19,-12v12m18,-12v12m19,-24v24m19,-12v12m18,-12v12m19,-12v12m19,-12v12m18,-24v24m19,-12v12m18,-12v12m19,-12v12m19,-12v12m18,-24v24m19,-12v12m18,-12v12m19,-12v12m19,-12v12m18,-24v24m19,-12v12m18,-12v12m19,-12v12m19,-12v12m18,-24v24m19,-12v12m18,-12v12m19,-12v12m19,-12v12m18,-24v24m19,-12v12m19,-12v12m18,-12v12m19,-12v12m18,-24v24m19,-12v12m19,-12v12m18,-12v12m19,-12v12m18,-24v24m19,-12v12m19,-12v12m18,-12v12m19,-12v12" style="stroke: rgb(0, 0, 0); stroke-width: 1px;"></path><g font-family="Arial" font-size="28" xml:space="preserve"><text fill="rgb(0,0,0)" text-anchor="middle" dy=".8em" transform="translate(0,6)">0</text><text fill="rgb(0,0,0)" text-anchor="middle" dy=".8em" transform="translate(93,6)">50</text><text fill="rgb(0,0,0)" text-anchor="middle" dy=".8em" transform="translate(186,6)">100</text><text fill="rgb(0,0,0)" text-anchor="middle" dy=".8em" transform="translate(279,6)">150</text><text fill="rgb(0,0,0)" text-anchor="middle" dy=".8em" transform="translate(372,6)">200</text><text fill="rgb(0,0,0)" text-anchor="middle" dy=".8em" transform="translate(465,6)">250</text><text fill="rgb(0,0,0)" text-anchor="middle" dy=".8em" transform="translate(558,6)">300</text><text fill="rgb(0,0,0)" text-anchor="middle" dy=".8em" transform="translate(651,6)">350</text><text fill="rgb(0,0,0)" text-anchor="middle" dy=".8em" transform="translate(744,6)">400</text><text fill="rgb(0,0,0)" text-anchor="middle" dy=".8em" transform="translate(837,6)">450</text></g><rect style="opacity: 0; cursor: crosshair;" x="0" y="0" width="921" height="31"></rect><g font-family="Arial" font-size="28" xml:space="preserve" style="cursor: move; touch-action: none;" transform="translate(921,45)"><g transform="translate(-144,9)"><text fill="rgb(0,0,0)" font-size="28">q</text><text fill="rgb(0,0,0)" font-size="17" transform="translate(17,5)">inv</text><text fill="rgb(0,0,0)" font-size="28" x="40"> [MeV/c]</text></g></g></g><g><path d="M0,0v649" style="stroke: rgb(0, 0, 0); stroke-width: 1px;"></path><path d="M18,647h-18m35,-19h-35m18,-20h-18m18,-19h-18m18,-20h-18m18,-20h-18m35,-19h-35m18,-20h-18m18,-19h-18m18,-20h-18m18,-19h-18m35,-20h-35m18,-20h-18m18,-19h-18m18,-20h-18m18,-19h-18m35,-20h-35m18,-20h-18m18,-19h-18m18,-20h-18m18,-19h-18m35,-20h-35m18,-19h-18m18,-20h-18m18,-20h-18m18,-19h-18m35,-20h-35m18,-19h-18m18,-20h-18m18,-20h-18m18,-19h-18m35,-20h-35m18,-19h-18m18,-20h-18" style="stroke: rgb(0, 0, 0); stroke-width: 1px;"></path><g font-family="Arial" font-size="28" xml:space="preserve"><text fill="rgb(0,0,0)" text-anchor="end" dominant-baseline="middle" transform="translate(-4,628)">0.6</text><text fill="rgb(0,0,0)" text-anchor="end" dominant-baseline="middle" transform="translate(-4,530)">0.7</text><text fill="rgb(0,0,0)" text-anchor="end" dominant-baseline="middle" transform="translate(-4,432)">0.8</text><text fill="rgb(0,0,0)" text-anchor="end" dominant-baseline="middle" transform="translate(-4,334)">0.9</text><text fill="rgb(0,0,0)" text-anchor="end" dominant-baseline="middle" transform="translate(-4,236)">1</text><text fill="rgb(0,0,0)" text-anchor="end" dominant-baseline="middle" transform="translate(-4,138)">1.1</text><text fill="rgb(0,0,0)" text-anchor="end" dominant-baseline="middle" transform="translate(-4,40)">1.2</text></g><rect style="opacity: 0; cursor: crosshair;" x="-41" y="0" width="41" height="649"></rect><g font-family="Arial" font-size="28" xml:space="preserve" style="cursor: move; touch-action: none;" transform="translate(-71,0)"><g transform=" rotate(270) translate(-98,9)"><text fill="rgb(0,0,0)" font-size="28">CF(q</text><text fill="rgb(0,0,0)" font-size="17" transform="translate(64,5)">inv</text><text fill="rgb(0,0,0)" font-size="28" x="87">)</text></g></g></g></g><path style="opacity: 0; cursor: nw-resize; touch-action: none;" d="M2,2h15v-5h-20v20h5Z"></path><path style="opacity: 0; cursor: ne-resize; touch-action: none;" d="M919,2h-15v-5h20v20h-5 Z"></path><path style="opacity: 0; cursor: sw-resize; touch-action: none;" d="M2,647h15v5h-20v-20h5Z"></path><path style="opacity: 0; cursor: se-resize; touch-action: none;" d="M919,647h-15v5h20v-20h-5Z"></path><path style="opacity: 0; cursor: w-resize; touch-action: none;" d="M-3,18h5v613h-5Z"></path><path style="opacity: 0; cursor: e-resize; touch-action: none;" d="M924,18h-5v613h5Z"></path><path style="opacity: 0; cursor: n-resize; touch-action: none;" d="M18,-3v5h885v-5Z"></path><path style="opacity: 0; cursor: s-resize; touch-action: none;" d="M18,652v-5h885v5Z"></path></g><g transform="translate(115,4)" font-family="Arial" font-size="41" xml:space="preserve" x="115" y="4" width="921" height="54" style="cursor: move; touch-action: none;"><path d="M0,0H921V54H0Z" style="fill: none; pointer-events: visiblefill;"></path><g transform="translate(321,41) scale(0.964)"><text fill="rgb(0,0,0)" font-size="45">k</text><text fill="rgb(0,0,0)" font-size="27" transform="translate(24,9)">T</text><text fill="rgb(0,0,0)" font-size="45" x="42">  (450,750)</text></g><path style="opacity: 0; cursor: nw-resize; touch-action: none;" d="M2,2h15v-5h-20v20h5Z"></path><path style="opacity: 0; cursor: ne-resize; touch-action: none;" d="M919,2h-15v-5h20v20h-5 Z"></path><path style="opacity: 0; cursor: sw-resize; touch-action: none;" d="M2,52h15v5h-20v-20h5Z"></path><path style="opacity: 0; cursor: se-resize; touch-action: none;" d="M919,52h-15v5h20v-20h-5Z"></path><path style="opacity: 0; cursor: w-resize; touch-action: none;" d="M-3,18h5v18h-5Z"></path><path style="opacity: 0; cursor: e-resize; touch-action: none;" d="M924,18h-5v18h5Z"></path><path style="opacity: 0; cursor: n-resize; touch-action: none;" d="M18,-3v5h885v-5Z"></path><path style="opacity: 0; cursor: s-resize; touch-action: none;" d="M18,57v-5h885v5Z"></path></g><g transform="translate(435,489)" font-family="Arial" font-size="30" xml:space="preserve" x="435" y="489" width="346" height="163" style="cursor: move; touch-action: none;"><path d="M0,0H346V163H0Z" style="fill: rgb(255, 255, 255); stroke: rgb(0, 0, 0); stroke-width: 1px; pointer-events: visiblefill;"></path><path d="M40,24a4,4,0,1,0,8,0a4,4,0,1,0,-8,0z" style="stroke: rgb(0, 74, 108); fill: rgb(0, 74, 108);"></path><path d="M40,62a4,4,0,1,0,8,0a4,4,0,1,0,-8,0z" style="stroke: rgb(0, 104, 114); fill: rgb(0, 104, 114);"></path><path d="M44,101h1" style="stroke: rgb(0, 0, 0); fill: none;"></path><path d="M44,139h1" style="stroke: rgb(0, 0, 0); fill: none;"></path><text fill="rgb(0,0,0)" text-anchor="start" dominant-baseline="middle" transform="translate(87,139)">fitFunc</text><g transform="translate(87,34) scale(0.911)"><text fill="rgb(0,0,0)" font-size="34">k</text><text fill="rgb(0,0,0)" font-size="20" transform="translate(19,7)">T</text><text fill="rgb(0,0,0)" font-size="34" x="33">  (450,750)</text></g><g transform="translate(87,72) scale(0.911)"><text fill="rgb(0,0,0)" font-size="34">k</text><text fill="rgb(0,0,0)" font-size="20" transform="translate(19,7)">T</text><text fill="rgb(0,0,0)" font-size="34" x="33">  (450,750)</text></g><g transform="translate(87,111) scale(0.911)"><text fill="rgb(0,0,0)" font-size="34">k</text><text fill="rgb(0,0,0)" font-size="20" transform="translate(19,7)">T</text><text fill="rgb(0,0,0)" font-size="34" x="33">  (450,750)</text></g><path style="opacity: 0; cursor: nw-resize; touch-action: none;" d="M2,2h15v-5h-20v20h5Z"></path><path style="opacity: 0; cursor: ne-resize; touch-action: none;" d="M344,2h-15v-5h20v20h-5 Z"></path><path style="opacity: 0; cursor: sw-resize; touch-action: none;" d="M2,161h15v5h-20v-20h5Z"></path><path style="opacity: 0; cursor: se-resize; touch-action: none;" d="M344,161h-15v5h20v-20h-5Z"></path><path style="opacity: 0; cursor: w-resize; touch-action: none;" d="M-3,18h5v127h-5Z"></path><path style="opacity: 0; cursor: e-resize; touch-action: none;" d="M349,18h-5v127h5Z"></path><path style="opacity: 0; cursor: n-resize; touch-action: none;" d="M18,-3v5h310v-5Z"></path><path style="opacity: 0; cursor: s-resize; touch-action: none;" d="M18,166v-5h310v5Z"></path></g><g><line x1="115" y1="317" x2="5697" y2="317" style="stroke: rgb(204, 204, 204); stroke-width: 1px; stroke-dasharray: 3px, 3px;"></line></g></g></svg>