<?xml version="1.0" standalone="no"?>
<svg width="567.429" height="301.058" viewBox="0 0 567.429 301.058" xmlns="http://www.w3.org/2000/svg" shape-rendering="crispEdges">
<title>
canvKtRinv.svg
</title>
<desc>
Creator: ROOT Version 6.24/02
CreationDate: Sun Jun  8 15:41:13 2025</desc>
<defs>
</defs>
<rect x="0.5" y="0" width="566.929" height="300.558" fill="white"/>
<rect x="85.5394" y="15.0279" width="453.543" height="240.446" fill="white"/>
<rect x="85.5394" y="15.0279" width="453.543" height="240.446" fill="none" stroke="black"/>
<path d="M110.736,142.511v -8.76238" fill="none" stroke="#3466af"/>
<path d="M110.736,128.051v -8.76238" fill="none" stroke="#3466af"/>
<path d="M85.5394,130.9h 22.348" fill="none" stroke="#3466af"/>
<path d="M113.585,130.9h 22.348" fill="none" stroke="#3466af"/>
<g fill="#3466af">
<circle cx="110.736" cy="130.9" r="2.84889"/>
</g>
<path d="M161.13,140.245v -1.68184" fill="none" stroke="#3466af"/>
<path d="M161.13,132.865v -1.68184" fill="none" stroke="#3466af"/>
<path d="M135.933,135.714h 22.348" fill="none" stroke="#3466af"/>
<path d="M163.979,135.714h 22.348" fill="none" stroke="#3466af"/>
<g fill="#3466af">
<circle cx="161.13" cy="135.714" r="2.84889"/>
</g>
<path d="M211.524,148.488v -0.888247" fill="none" stroke="#3466af"/>
<path d="M211.524,141.902v -0.888247" fill="none" stroke="#3466af"/>
<path d="M186.327,144.751h 22.348" fill="none" stroke="#3466af"/>
<path d="M214.373,144.751h 22.348" fill="none" stroke="#3466af"/>
<g fill="#3466af">
<circle cx="211.524" cy="144.751" r="2.84889"/>
</g>
<path d="M261.917,166.533v -1.01148" fill="none" stroke="#3466af"/>
<path d="M261.917,159.824v -1.01148" fill="none" stroke="#3466af"/>
<path d="M236.72,162.673h 22.348" fill="none" stroke="#3466af"/>
<path d="M264.766,162.673h 22.348" fill="none" stroke="#3466af"/>
<g fill="#3466af">
<circle cx="261.917" cy="162.673" r="2.84889"/>
</g>
<path d="M312.311,181.412v -1.55621" fill="none" stroke="#3466af"/>
<path d="M312.311,174.158v -1.55621" fill="none" stroke="#3466af"/>
<path d="M287.114,177.007h 22.348" fill="none" stroke="#3466af"/>
<path d="M315.16,177.007h 22.348" fill="none" stroke="#3466af"/>
<g fill="#3466af">
<circle cx="312.311" cy="177.007" r="2.84889"/>
</g>
<path d="M362.705,191.544v -2.35557" fill="none" stroke="#3466af"/>
<path d="M362.705,183.491v -2.35557" fill="none" stroke="#3466af"/>
<path d="M337.508,186.34h 22.348" fill="none" stroke="#3466af"/>
<path d="M365.554,186.34h 22.348" fill="none" stroke="#3466af"/>
<g fill="#3466af">
<circle cx="362.705" cy="186.34" r="2.84889"/>
</g>
<path d="M413.098,201.878v -3.25051" fill="none" stroke="#3466af"/>
<path d="M413.098,192.93v -3.25051" fill="none" stroke="#3466af"/>
<path d="M387.902,195.779h 22.348" fill="none" stroke="#3466af"/>
<path d="M415.947,195.779h 22.348" fill="none" stroke="#3466af"/>
<g fill="#3466af">
<circle cx="413.098" cy="195.779" r="2.84889"/>
</g>
<path d="M463.492,213.451v -7.50449" fill="none" stroke="#3466af"/>
<path d="M463.492,200.249v -7.50449" fill="none" stroke="#3466af"/>
<path d="M438.295,203.098h 22.348" fill="none" stroke="#3466af"/>
<path d="M466.341,203.098h 22.348" fill="none" stroke="#3466af"/>
<g fill="#3466af">
<circle cx="463.492" cy="203.098" r="2.84889"/>
</g>
<path d="M513.886,218.963v -12.9082" fill="none" stroke="#3466af"/>
<path d="M513.886,200.357v -12.9082" fill="none" stroke="#3466af"/>
<path d="M488.689,203.206h 22.348" fill="none" stroke="#3466af"/>
<path d="M516.735,203.206h 22.348" fill="none" stroke="#3466af"/>
<g fill="#3466af">
<circle cx="513.886" cy="203.206" r="2.84889"/>
</g>
<path d="M85.5394,255.474h 453.543" fill="none" stroke="black"/>
<path d="M161.13,248.261v 7.21339" fill="none" stroke="black"/>
<path d="M186.327,251.868v 3.60669" fill="none" stroke="black"/>
<path d="M211.524,251.868v 3.60669" fill="none" stroke="black"/>
<path d="M236.72,251.868v 3.60669" fill="none" stroke="black"/>
<path d="M261.917,251.868v 3.60669" fill="none" stroke="black"/>
<path d="M287.114,248.261v 7.21339" fill="none" stroke="black"/>
<path d="M312.311,251.868v 3.60669" fill="none" stroke="black"/>
<path d="M337.508,251.868v 3.60669" fill="none" stroke="black"/>
<path d="M362.705,251.868v 3.60669" fill="none" stroke="black"/>
<path d="M387.902,251.868v 3.60669" fill="none" stroke="black"/>
<path d="M413.098,248.261v 7.21339" fill="none" stroke="black"/>
<path d="M438.295,251.868v 3.60669" fill="none" stroke="black"/>
<path d="M463.492,251.868v 3.60669" fill="none" stroke="black"/>
<path d="M488.689,251.868v 3.60669" fill="none" stroke="black"/>
<path d="M513.886,251.868v 3.60669" fill="none" stroke="black"/>
<path d="M539.083,248.261v 7.21339" fill="none" stroke="black"/>
<path d="M161.13,248.261v 7.21339" fill="none" stroke="black"/>
<path d="M135.933,251.868v 3.60669" fill="none" stroke="black"/>
<path d="M110.736,251.868v 3.60669" fill="none" stroke="black"/>
<path d="M85.5394,251.868v 3.60669" fill="none" stroke="black"/>
<text xml:space="preserve" x="146.506" y="271.357" fill="black" font-size="17.0445" font-family="Helvetica">500</text>
<text xml:space="preserve" x="267.583" y="271.357" fill="black" font-size="17.0445" font-family="Helvetica">1000</text>
<text xml:space="preserve" x="393.647" y="271.357" fill="black" font-size="17.0445" font-family="Helvetica">1500</text>
<text xml:space="preserve" x="519.71" y="271.357" fill="black" font-size="17.0445" font-family="Helvetica">2000</text>
<text xml:space="preserve" x="476.977" y="288.45" fill="black" font-size="17.0445" font-family="Helvetica"> [MeV/c]</text>
<text xml:space="preserve" x="469.855" y="293.436" fill="black" font-size="11.5296" font-family="Helvetica">T</text>
<text xml:space="preserve" x="461.308" y="288.45" fill="black" font-size="17.0445" font-family="Helvetica">k</text>
<path d="M85.5394,255.474v -240.446" fill="none" stroke="black"/>
<path d="M99.1457,255.474h -13.6063" fill="none" stroke="black"/>
<path d="M92.3425,243.452h -6.80315" fill="none" stroke="black"/>
<path d="M92.3425,231.43h -6.80315" fill="none" stroke="black"/>
<path d="M92.3425,219.407h -6.80315" fill="none" stroke="black"/>
<path d="M92.3425,207.385h -6.80315" fill="none" stroke="black"/>
<path d="M99.1457,195.363h -13.6063" fill="none" stroke="black"/>
<path d="M92.3425,183.34h -6.80315" fill="none" stroke="black"/>
<path d="M92.3425,171.318h -6.80315" fill="none" stroke="black"/>
<path d="M92.3425,159.296h -6.80315" fill="none" stroke="black"/>
<path d="M92.3425,147.273h -6.80315" fill="none" stroke="black"/>
<path d="M99.1457,135.251h -13.6063" fill="none" stroke="black"/>
<path d="M92.3425,123.229h -6.80315" fill="none" stroke="black"/>
<path d="M92.3425,111.206h -6.80315" fill="none" stroke="black"/>
<path d="M92.3425,99.1841h -6.80315" fill="none" stroke="black"/>
<path d="M92.3425,87.1618h -6.80315" fill="none" stroke="black"/>
<path d="M99.1457,75.1395h -13.6063" fill="none" stroke="black"/>
<path d="M92.3425,63.1172h -6.80315" fill="none" stroke="black"/>
<path d="M92.3425,51.0948h -6.80315" fill="none" stroke="black"/>
<path d="M92.3425,39.0725h -6.80315" fill="none" stroke="black"/>
<path d="M92.3425,27.0502h -6.80315" fill="none" stroke="black"/>
<path d="M99.1457,15.0279h -13.6063" fill="none" stroke="black"/>
<text xml:space="preserve" x="58.9022" y="261.386" fill="black" font-size="17.0445" font-family="Helvetica">2.5</text>
<text xml:space="preserve" x="73.1467" y="201.559" fill="black" font-size="17.0445" font-family="Helvetica">3</text>
<text xml:space="preserve" x="58.9022" y="141.02" fill="black" font-size="17.0445" font-family="Helvetica">3.5</text>
<text xml:space="preserve" x="73.1467" y="81.9056" fill="black" font-size="17.0445" font-family="Helvetica">4</text>
<text xml:space="preserve" x="58.9022" y="21.3667" fill="black" font-size="17.0445" font-family="Helvetica">4.5</text>
<g transform="rotate(-90,31.8378,47.7189)">
<text xml:space="preserve" x="31.8378" y="47.7189" fill="black" font-size="17.0445" font-family="Helvetica"> [fm]</text>
</g>
<g transform="rotate(-90,36.8233,62.6756)">
<text xml:space="preserve" x="36.8233" y="62.6756" fill="black" font-size="11.5296" font-family="Helvetica">inv</text>
</g>
<g transform="rotate(-90,31.8378,74.7834)">
<text xml:space="preserve" x="31.8378" y="74.7834" fill="black" font-size="17.0445" font-family="Helvetica">R</text>
</g>
<text xml:space="preserve" x="265.447" y="14.2445" fill="black" font-size="13.3909" font-family="Helvetica">0-10%</text>
<text xml:space="preserve" x="265.447" y="14.2445" fill="black" font-size="13.3909" font-family="Helvetica">0-10%</text></svg>
