<?xml version="1.0" standalone="no"?>
<svg width="567.429" height="301.058" viewBox="0 0 567.429 301.058" xmlns="http://www.w3.org/2000/svg" shape-rendering="crispEdges">
<title>
canvYRinv.svg
</title>
<desc>
Creator: ROOT Version 6.24/02
CreationDate: Sun Jun  8 15:41:13 2025</desc>
<defs>
</defs>
<rect x="0.5" y="0" width="566.929" height="300.558" fill="white"/>
<rect x="85.5394" y="15.0279" width="453.543" height="240.446" fill="white"/>
<rect x="85.5394" y="15.0279" width="453.543" height="240.446" fill="none" stroke="black"/>
<path d="M110.736,145.147v -6.52972" fill="none" stroke="#3466af"/>
<path d="M110.736,132.919v -6.52972" fill="none" stroke="#3466af"/>
<path d="M85.5394,135.768h 22.348" fill="none" stroke="#3466af"/>
<path d="M113.585,135.768h 22.348" fill="none" stroke="#3466af"/>
<g fill="#3466af">
<circle cx="110.736" cy="135.768" r="2.84889"/>
</g>
<path d="M161.13,166.536v -7.13294" fill="none" stroke="#3466af"/>
<path d="M161.13,153.706v -7.13294" fill="none" stroke="#3466af"/>
<path d="M135.933,156.555h 22.348" fill="none" stroke="#3466af"/>
<path d="M163.979,156.555h 22.348" fill="none" stroke="#3466af"/>
<g fill="#3466af">
<circle cx="161.13" cy="156.555" r="2.84889"/>
</g>
<path d="M211.524,179.084v -6.88558" fill="none" stroke="#3466af"/>
<path d="M211.524,166.5v -6.88558" fill="none" stroke="#3466af"/>
<path d="M186.327,169.349h 22.348" fill="none" stroke="#3466af"/>
<path d="M214.373,169.349h 22.348" fill="none" stroke="#3466af"/>
<g fill="#3466af">
<circle cx="211.524" cy="169.349" r="2.84889"/>
</g>
<path d="M261.917,178.469v -9.538" fill="none" stroke="#3466af"/>
<path d="M261.917,163.233v -9.538" fill="none" stroke="#3466af"/>
<path d="M236.72,166.082h 22.348" fill="none" stroke="#3466af"/>
<path d="M264.766,166.082h 22.348" fill="none" stroke="#3466af"/>
<g fill="#3466af">
<circle cx="261.917" cy="166.082" r="2.84889"/>
</g>
<path d="M312.311,178.156v -11.9842" fill="none" stroke="#3466af"/>
<path d="M312.311,160.474v -11.9842" fill="none" stroke="#3466af"/>
<path d="M287.114,163.323h 22.348" fill="none" stroke="#3466af"/>
<path d="M315.16,163.323h 22.348" fill="none" stroke="#3466af"/>
<g fill="#3466af">
<circle cx="312.311" cy="163.323" r="2.84889"/>
</g>
<path d="M362.705,195.369v -11.9028" fill="none" stroke="#3466af"/>
<path d="M362.705,177.768v -11.9028" fill="none" stroke="#3466af"/>
<path d="M337.508,180.617h 22.348" fill="none" stroke="#3466af"/>
<path d="M365.554,180.617h 22.348" fill="none" stroke="#3466af"/>
<g fill="#3466af">
<circle cx="362.705" cy="180.617" r="2.84889"/>
</g>
<path d="M413.098,213.15v -14.8846" fill="none" stroke="#3466af"/>
<path d="M413.098,192.568v -14.8846" fill="none" stroke="#3466af"/>
<path d="M387.902,195.417h 22.348" fill="none" stroke="#3466af"/>
<path d="M415.947,195.417h 22.348" fill="none" stroke="#3466af"/>
<g fill="#3466af">
<circle cx="413.098" cy="195.417" r="2.84889"/>
</g>
<path d="M463.492,214.989v -18.5626" fill="none" stroke="#3466af"/>
<path d="M463.492,190.728v -18.5626" fill="none" stroke="#3466af"/>
<path d="M438.295,193.577h 22.348" fill="none" stroke="#3466af"/>
<path d="M466.341,193.577h 22.348" fill="none" stroke="#3466af"/>
<g fill="#3466af">
<circle cx="463.492" cy="193.577" r="2.84889"/>
</g>
<path d="M513.886,235.438v -30.1121" fill="none" stroke="#3466af"/>
<path d="M513.886,199.628v -30.1121" fill="none" stroke="#3466af"/>
<path d="M488.689,202.477h 22.348" fill="none" stroke="#3466af"/>
<path d="M516.735,202.477h 22.348" fill="none" stroke="#3466af"/>
<g fill="#3466af">
<circle cx="513.886" cy="202.477" r="2.84889"/>
</g>
<path d="M85.5394,255.474h 453.543" fill="none" stroke="black"/>
<path d="M110.736,248.261v 7.21339" fill="none" stroke="black"/>
<path d="M135.933,251.868v 3.60669" fill="none" stroke="black"/>
<path d="M161.13,251.868v 3.60669" fill="none" stroke="black"/>
<path d="M186.327,251.868v 3.60669" fill="none" stroke="black"/>
<path d="M211.524,248.261v 7.21339" fill="none" stroke="black"/>
<path d="M236.72,251.868v 3.60669" fill="none" stroke="black"/>
<path d="M261.917,251.868v 3.60669" fill="none" stroke="black"/>
<path d="M287.114,251.868v 3.60669" fill="none" stroke="black"/>
<path d="M312.311,248.261v 7.21339" fill="none" stroke="black"/>
<path d="M337.508,251.868v 3.60669" fill="none" stroke="black"/>
<path d="M362.705,251.868v 3.60669" fill="none" stroke="black"/>
<path d="M387.902,251.868v 3.60669" fill="none" stroke="black"/>
<path d="M413.098,248.261v 7.21339" fill="none" stroke="black"/>
<path d="M438.295,251.868v 3.60669" fill="none" stroke="black"/>
<path d="M463.492,251.868v 3.60669" fill="none" stroke="black"/>
<path d="M488.689,251.868v 3.60669" fill="none" stroke="black"/>
<path d="M513.886,248.261v 7.21339" fill="none" stroke="black"/>
<path d="M110.736,248.261v 7.21339" fill="none" stroke="black"/>
<path d="M85.5394,251.868v 3.60669" fill="none" stroke="black"/>
<path d="M513.886,248.261v 7.21339" fill="none" stroke="black"/>
<text xml:space="preserve" x="102.348" y="271.357" fill="black" font-size="17.0445" font-family="Helvetica">0.6</text>
<text xml:space="preserve" x="93.8012" y="271.357" fill="black" font-size="17.0445" font-family="Times">&#8722;</text>
<text xml:space="preserve" x="203.483" y="271.357" fill="black" font-size="17.0445" font-family="Helvetica">0.4</text>
<text xml:space="preserve" x="194.937" y="271.357" fill="black" font-size="17.0445" font-family="Times">&#8722;</text>
<text xml:space="preserve" x="303.907" y="271.357" fill="black" font-size="17.0445" font-family="Helvetica">0.2</text>
<text xml:space="preserve" x="295.36" y="271.357" fill="black" font-size="17.0445" font-family="Times">&#8722;</text>
<text xml:space="preserve" x="407.891" y="271.357" fill="black" font-size="17.0445" font-family="Helvetica">0</text>
<text xml:space="preserve" x="501.192" y="271.357" fill="black" font-size="17.0445" font-family="Helvetica">0.2</text>
<text xml:space="preserve" x="518.286" y="296.285" fill="black" font-size="11.5296" font-family="Helvetica">c.m.</text>
<text xml:space="preserve" x="518.286" y="280.616" fill="black" font-size="11.5296" font-family="Helvetica">1,2</text>
<text xml:space="preserve" x="509.739" y="288.45" fill="black" font-size="17.0445" font-family="Helvetica">y</text>
<path d="M85.5394,255.474v -240.446" fill="none" stroke="black"/>
<path d="M99.1457,255.474h -13.6063" fill="none" stroke="black"/>
<path d="M92.3425,240.446h -6.80315" fill="none" stroke="black"/>
<path d="M92.3425,225.418h -6.80315" fill="none" stroke="black"/>
<path d="M92.3425,210.391h -6.80315" fill="none" stroke="black"/>
<path d="M99.1457,195.363h -13.6063" fill="none" stroke="black"/>
<path d="M92.3425,180.335h -6.80315" fill="none" stroke="black"/>
<path d="M92.3425,165.307h -6.80315" fill="none" stroke="black"/>
<path d="M92.3425,150.279h -6.80315" fill="none" stroke="black"/>
<path d="M99.1457,135.251h -13.6063" fill="none" stroke="black"/>
<path d="M92.3425,120.223h -6.80315" fill="none" stroke="black"/>
<path d="M92.3425,105.195h -6.80315" fill="none" stroke="black"/>
<path d="M92.3425,90.1674h -6.80315" fill="none" stroke="black"/>
<path d="M99.1457,75.1395h -13.6063" fill="none" stroke="black"/>
<path d="M92.3425,60.1116h -6.80315" fill="none" stroke="black"/>
<path d="M92.3425,45.0837h -6.80315" fill="none" stroke="black"/>
<path d="M92.3425,30.0558h -6.80315" fill="none" stroke="black"/>
<path d="M99.1457,15.0279h -13.6063" fill="none" stroke="black"/>
<text xml:space="preserve" x="73.1467" y="261.386" fill="black" font-size="17.0445" font-family="Helvetica">3</text>
<text xml:space="preserve" x="58.9022" y="201.559" fill="black" font-size="17.0445" font-family="Helvetica">3.2</text>
<text xml:space="preserve" x="58.9022" y="141.02" fill="black" font-size="17.0445" font-family="Helvetica">3.4</text>
<text xml:space="preserve" x="58.9022" y="81.1934" fill="black" font-size="17.0445" font-family="Helvetica">3.6</text>
<text xml:space="preserve" x="58.9022" y="21.3667" fill="black" font-size="17.0445" font-family="Helvetica">3.8</text>
<g transform="rotate(-90,31.8378,47.7189)">
<text xml:space="preserve" x="31.8378" y="47.7189" fill="black" font-size="17.0445" font-family="Helvetica"> [fm]</text>
</g>
<g transform="rotate(-90,36.8233,62.6756)">
<text xml:space="preserve" x="36.8233" y="62.6756" fill="black" font-size="11.5296" font-family="Helvetica">inv</text>
</g>
<g transform="rotate(-90,31.8378,74.7834)">
<text xml:space="preserve" x="31.8378" y="74.7834" fill="black" font-size="17.0445" font-family="Helvetica">R</text>
</g>
<text xml:space="preserve" x="265.447" y="14.2445" fill="black" font-size="13.3909" font-family="Helvetica">0-10%</text>
<text xml:space="preserve" x="265.447" y="14.2445" fill="black" font-size="13.3909" font-family="Helvetica">0-10%</text></svg>
