<?xml version="1.0" encoding="UTF-8" standalone="no"?>
<!DOCTYPE svg PUBLIC "-//W3C//DTD SVG 1.1//EN"
 "http://www.w3.org/Graphics/SVG/1.1/DTD/svg11.dtd">
<!-- Generated by graphviz version 2.43.0 (0)
 -->
<!-- Title: EventCandidate.hxx Pages: 1 -->
<svg width="716pt" height="151pt"
 viewBox="0.00 0.00 716.00 151.00" xmlns="http://www.w3.org/2000/svg" xmlns:xlink="http://www.w3.org/1999/xlink">
<g id="graph0" class="graph" transform="scale(1 1) rotate(0) translate(4 147)">
<title>EventCandidate.hxx</title>
<polygon fill="white" stroke="transparent" points="-4,4 -4,-147 712,-147 712,4 -4,4"/>
<!-- Node1 -->
<g id="node1" class="node">
<title>Node1</title>
<g id="a_node1"><a xlink:title=" ">
<polygon fill="#bfbfbf" stroke="black" points="327.5,-123.5 327.5,-142.5 442.5,-142.5 442.5,-123.5 327.5,-123.5"/>
<text text-anchor="middle" x="385" y="-130.5" font-family="Helvetica,sans-Serif" font-size="10.00">EventCandidate.hxx</text>
</a>
</g>
</g>
<!-- Node2 -->
<g id="node2" class="node">
<title>Node2</title>
<g id="a_node2"><a xlink:href="_track_candidate_8hxx.html" target="_top" xlink:title=" ">
<polygon fill="white" stroke="black" points="279.5,-67.5 279.5,-86.5 392.5,-86.5 392.5,-67.5 279.5,-67.5"/>
<text text-anchor="middle" x="336" y="-74.5" font-family="Helvetica,sans-Serif" font-size="10.00">TrackCandidate.hxx</text>
</a>
</g>
</g>
<!-- Node1&#45;&gt;Node2 -->
<g id="edge1" class="edge">
<title>Node1&#45;&gt;Node2</title>
<path fill="none" stroke="midnightblue" d="M376.91,-123.08C369.84,-115.3 359.41,-103.8 350.85,-94.37"/>
<polygon fill="midnightblue" stroke="midnightblue" points="353.25,-91.8 343.94,-86.75 348.07,-96.51 353.25,-91.8"/>
</g>
<!-- Node9 -->
<g id="node9" class="node">
<title>Node9</title>
<g id="a_node9"><a xlink:title=" ">
<polygon fill="white" stroke="#bfbfbf" points="410.5,-67.5 410.5,-86.5 457.5,-86.5 457.5,-67.5 410.5,-67.5"/>
<text text-anchor="middle" x="434" y="-74.5" font-family="Helvetica,sans-Serif" font-size="10.00">vector</text>
</a>
</g>
</g>
<!-- Node1&#45;&gt;Node9 -->
<g id="edge8" class="edge">
<title>Node1&#45;&gt;Node9</title>
<path fill="none" stroke="midnightblue" d="M393.09,-123.08C400.16,-115.3 410.59,-103.8 419.15,-94.37"/>
<polygon fill="midnightblue" stroke="midnightblue" points="421.93,-96.51 426.06,-86.75 416.75,-91.8 421.93,-96.51"/>
</g>
<!-- Node3 -->
<g id="node3" class="node">
<title>Node3</title>
<g id="a_node3"><a xlink:title=" ">
<polygon fill="white" stroke="#bfbfbf" points="0,-0.5 0,-30.5 128,-30.5 128,-0.5 0,-0.5"/>
<text text-anchor="start" x="8" y="-18.5" font-family="Helvetica,sans-Serif" font-size="10.00">../../HFiredWires/HFired</text>
<text text-anchor="middle" x="64" y="-7.5" font-family="Helvetica,sans-Serif" font-size="10.00">Wires.hxx</text>
</a>
</g>
</g>
<!-- Node2&#45;&gt;Node3 -->
<g id="edge2" class="edge">
<title>Node2&#45;&gt;Node3</title>
<path fill="none" stroke="midnightblue" d="M297.03,-67.48C255.71,-58.44 189.47,-43.95 138.16,-32.72"/>
<polygon fill="midnightblue" stroke="midnightblue" points="138.62,-29.24 128.11,-30.52 137.13,-36.08 138.62,-29.24"/>
</g>
<!-- Node4 -->
<g id="node4" class="node">
<title>Node4</title>
<g id="a_node4"><a xlink:title=" ">
<polygon fill="white" stroke="#bfbfbf" points="146,-6 146,-25 244,-25 244,-6 146,-6"/>
<text text-anchor="middle" x="195" y="-13" font-family="Helvetica,sans-Serif" font-size="10.00">TLorentzVector.h</text>
</a>
</g>
</g>
<!-- Node2&#45;&gt;Node4 -->
<g id="edge3" class="edge">
<title>Node2&#45;&gt;Node4</title>
<path fill="none" stroke="midnightblue" d="M315.8,-67.48C291.93,-57.4 252,-40.55 224.63,-29"/>
<polygon fill="midnightblue" stroke="midnightblue" points="225.74,-25.67 215.16,-25.01 223.02,-32.12 225.74,-25.67"/>
</g>
<!-- Node5 -->
<g id="node5" class="node">
<title>Node5</title>
<g id="a_node5"><a xlink:title=" ">
<polygon fill="white" stroke="#bfbfbf" points="262.5,-6 262.5,-25 317.5,-25 317.5,-6 262.5,-6"/>
<text text-anchor="middle" x="290" y="-13" font-family="Helvetica,sans-Serif" font-size="10.00">TCutG.h</text>
</a>
</g>
</g>
<!-- Node2&#45;&gt;Node5 -->
<g id="edge4" class="edge">
<title>Node2&#45;&gt;Node5</title>
<path fill="none" stroke="midnightblue" d="M329.41,-67.48C322.51,-58.55 311.5,-44.31 302.87,-33.14"/>
<polygon fill="midnightblue" stroke="midnightblue" points="305.46,-30.78 296.58,-25.01 299.93,-35.06 305.46,-30.78"/>
</g>
<!-- Node6 -->
<g id="node6" class="node">
<title>Node6</title>
<g id="a_node6"><a xlink:title=" ">
<polygon fill="white" stroke="#bfbfbf" points="336,-6 336,-25 428,-25 428,-6 336,-6"/>
<text text-anchor="middle" x="382" y="-13" font-family="Helvetica,sans-Serif" font-size="10.00">hparticlecand.h</text>
</a>
</g>
</g>
<!-- Node2&#45;&gt;Node6 -->
<g id="edge5" class="edge">
<title>Node2&#45;&gt;Node6</title>
<path fill="none" stroke="midnightblue" d="M342.59,-67.48C349.49,-58.55 360.5,-44.31 369.13,-33.14"/>
<polygon fill="midnightblue" stroke="midnightblue" points="372.07,-35.06 375.42,-25.01 366.54,-30.78 372.07,-35.06"/>
</g>
<!-- Node7 -->
<g id="node7" class="node">
<title>Node7</title>
<g id="a_node7"><a xlink:title=" ">
<polygon fill="white" stroke="#bfbfbf" points="446,-6 446,-25 556,-25 556,-6 446,-6"/>
<text text-anchor="middle" x="501" y="-13" font-family="Helvetica,sans-Serif" font-size="10.00">hparticlecandsim.h</text>
</a>
</g>
</g>
<!-- Node2&#45;&gt;Node7 -->
<g id="edge6" class="edge">
<title>Node2&#45;&gt;Node7</title>
<path fill="none" stroke="midnightblue" d="M359.64,-67.48C387.94,-57.27 435.53,-40.11 467.59,-28.55"/>
<polygon fill="midnightblue" stroke="midnightblue" points="469.18,-31.69 477.4,-25.01 466.81,-25.11 469.18,-31.69"/>
</g>
<!-- Node8 -->
<g id="node8" class="node">
<title>Node8</title>
<g id="a_node8"><a xlink:title=" ">
<polygon fill="white" stroke="#bfbfbf" points="574,-6 574,-25 708,-25 708,-6 574,-6"/>
<text text-anchor="middle" x="641" y="-13" font-family="Helvetica,sans-Serif" font-size="10.00">hparticlemetamatcher.h</text>
</a>
</g>
</g>
<!-- Node2&#45;&gt;Node8 -->
<g id="edge7" class="edge">
<title>Node2&#45;&gt;Node8</title>
<path fill="none" stroke="midnightblue" d="M379.7,-67.48C434.51,-56.78 528.44,-38.46 587.5,-26.94"/>
<polygon fill="midnightblue" stroke="midnightblue" points="588.24,-30.36 597.38,-25.01 586.9,-23.49 588.24,-30.36"/>
</g>
</g>
</svg>
